<svg width="256" height="256" viewBox="0 0 256 256" fill="none" xmlns="http://www.w3.org/2000/svg" role="img" aria-label="Öz &amp; Saye Psikoloji amblemi">
  <rect width="256" height="256" rx="56" fill="#23472E" />
  <g transform="translate(28 26)">
    <!-- Kucaklayan yapraklar -->
    <path d="M0 0 C-14 -10 -15 -34 0 -50 C15 -34 14 -10 0 0 Z" transform="translate(86 142) rotate(-43) scale(1.4)" fill="#A7BFA7" />
    <path d="M0 0 C-14 -10 -15 -34 0 -50 C15 -34 14 -10 0 0 Z" transform="translate(114 142) rotate(43) scale(1.4)" fill="#7E9E80" />
    <!-- Figür -->
    <circle cx="100" cy="64" r="10.5" fill="#F3EFE6" />
    <path d="M100 76 C93 89 93 117 100 132 C107 117 107 89 100 76 Z" fill="#F3EFE6" />
    <path d="M99 85 C88 80 80 68 78 57" stroke="#F3EFE6" stroke-width="7.5" stroke-linecap="round" />
    <path d="M101 85 C112 80 120 68 122 57" stroke="#F3EFE6" stroke-width="7.5" stroke-linecap="round" />
  </g>
</svg>
