<svg width="200" height="200" viewBox="0 0 200 200" fill="none" xmlns="http://www.w3.org/2000/svg" role="img" aria-label="Öz &amp; Saye Psikoloji amblemi">
  <!-- Açık halka -->
  <path d="M132 25 A82 82 0 1 1 68 25" fill="none" stroke="#23472E" stroke-width="5.5" stroke-linecap="round" />
  <!-- Kucaklayan yapraklar -->
  <path d="M0 0 C-14 -10 -15 -34 0 -50 C15 -34 14 -10 0 0 Z" transform="translate(86 142) rotate(-43) scale(1.4)" fill="#A7BFA7" />
  <path d="M0 0 C-14 -10 -15 -34 0 -50 C15 -34 14 -10 0 0 Z" transform="translate(114 142) rotate(43) scale(1.4)" fill="#7E9E80" />
  <!-- Figür -->
  <circle cx="100" cy="64" r="9.5" fill="#23472E" />
  <path d="M100 76 C94 88 94 116 100 130 C106 116 106 88 100 76 Z" fill="#23472E" />
  <path d="M99 85 C89 80 81 69 79 58" stroke="#23472E" stroke-width="6.5" stroke-linecap="round" />
  <path d="M101 85 C111 80 119 69 121 58" stroke="#23472E" stroke-width="6.5" stroke-linecap="round" />
</svg>
