<svg width="256" height="256" viewBox="0 0 256 256" fill="none" xmlns="http://www.w3.org/2000/svg">
  <rect width="256" height="256" rx="56" fill="#2B5233" />
  <g transform="translate(23 23) scale(1.05)">
    <!-- Yaprak kanatlar -->
    <path d="M0 0 C-13 -9 -13 -33 0 -46 C13 -33 13 -9 0 0 Z" transform="translate(86 116) rotate(-28) scale(1.5)" fill="#92B594" />
    <path d="M0 0 C-13 -9 -13 -33 0 -46 C13 -33 13 -9 0 0 Z" transform="translate(114 116) rotate(28) scale(1.5)" fill="#AFC6B0" />
    <!-- Figür -->
    <circle cx="100" cy="78" r="11" fill="#FDFBF7" />
    <path d="M100 92 C92 104 92 132 100 150 C108 132 108 104 100 92 Z" fill="#FDFBF7" />
    <path d="M99 100 C88 96 80 90 78 82" stroke="#FDFBF7" stroke-width="7" stroke-linecap="round" />
    <path d="M101 100 C112 96 120 90 122 82" stroke="#FDFBF7" stroke-width="7" stroke-linecap="round" />
  </g>
</svg>
