<svg width="420" height="420" viewBox="0 0 420 420" xmlns="http://www.w3.org/2000/svg"><g transform="translate(50 50) scale(1.6)">
    <path d="M132 25 A82 82 0 1 1 68 25" fill="none" stroke="#F3EFE6" stroke-width="5.5" stroke-linecap="round"/>
    <path d="M0 0 C-14 -10 -15 -34 0 -50 C15 -34 14 -10 0 0 Z" fill="#A7BFA7" transform="translate(86 142) rotate(-43) scale(1.4)"/>
    <path d="M0 0 C-14 -10 -15 -34 0 -50 C15 -34 14 -10 0 0 Z" fill="#7E9E80" transform="translate(114 142) rotate(43) scale(1.4)"/>
    <circle cx="100" cy="64" r="9.5" fill="#F3EFE6"/>
    <path d="M100 76 C94 88 94 116 100 130 C106 116 106 88 100 76 Z" fill="#F3EFE6"/>
    <path d="M99 85 C89 80 81 69 79 58" stroke="#F3EFE6" stroke-width="6.5" stroke-linecap="round" fill="none"/>
    <path d="M101 85 C111 80 119 69 121 58" stroke="#F3EFE6" stroke-width="6.5" stroke-linecap="round" fill="none"/></g></svg>