<svg width="946" height="794" viewBox="0 0 946 794" xmlns="http://www.w3.org/2000/svg"><g transform="translate(312.788 90) scale(1.6)">
    <path d="M132 25 A82 82 0 1 1 68 25" fill="none" stroke="#1A1A1A" stroke-width="5.5" stroke-linecap="round"/>
    <path d="M0 0 C-14 -10 -15 -34 0 -50 C15 -34 14 -10 0 0 Z" fill="#1A1A1A" fill-opacity="0.5" transform="translate(86 142) rotate(-43) scale(1.4)"/>
    <path d="M0 0 C-14 -10 -15 -34 0 -50 C15 -34 14 -10 0 0 Z" fill="#1A1A1A" fill-opacity="0.78" transform="translate(114 142) rotate(43) scale(1.4)"/>
    <circle cx="100" cy="64" r="9.5" fill="#1A1A1A"/>
    <path d="M100 76 C94 88 94 116 100 130 C106 116 106 88 100 76 Z" fill="#1A1A1A"/>
    <path d="M99 85 C89 80 81 69 79 58" stroke="#1A1A1A" stroke-width="6.5" stroke-linecap="round" fill="none"/>
    <path d="M101 85 C111 80 119 69 121 58" stroke="#1A1A1A" stroke-width="6.5" stroke-linecap="round" fill="none"/></g><path d="M62.33 -121.3L62.33 -121.3Q78.29 -121.3 90.3 -114.07Q102.31 -106.85 108.95 -93.32Q115.58 -79.8 115.58 -60.48L115.58 -60.48Q115.58 -41.66 108.78 -27.55Q101.98 -13.44 89.88 -5.54Q77.78 2.35 62.16 2.35L62.16 2.35Q46.2 2.35 34.19 -4.87Q22.18 -12.1 15.54 -25.7Q8.9 -39.31 8.9 -58.46L8.9 -58.46Q8.9 -77.28 15.79 -91.39Q22.68 -105.5 34.69 -113.4Q46.7 -121.3 62.33 -121.3M61.66 -118.27L61.66 -118.27Q50.74 -118.27 42.67 -110.71Q34.61 -103.15 30.16 -89.88Q25.7 -76.61 25.7 -59.14L25.7 -59.14Q25.7 -41.33 30.66 -28.14Q35.62 -14.95 44.1 -7.81Q52.58 -0.67 62.83 -0.67L62.83 -0.67Q73.75 -0.67 81.82 -8.23Q89.88 -15.79 94.33 -29.15Q98.78 -42.5 98.78 -59.81L98.78 -59.81Q98.78 -77.78 93.83 -90.89Q88.87 -103.99 80.47 -111.13Q72.07 -118.27 61.66 -118.27M79.8 -149.18L79.8 -149.18Q83.66 -149.18 86.6 -146.24Q89.54 -143.3 89.54 -139.44L89.54 -139.44Q89.54 -135.41 86.6 -132.55Q83.66 -129.7 79.8 -129.7L79.8 -129.7Q75.77 -129.7 72.91 -132.55Q70.06 -135.41 70.06 -139.44L70.06 -139.44Q70.06 -143.3 72.91 -146.24Q75.77 -149.18 79.8 -149.18M44.18 -149.18L44.18 -149.18Q48.05 -149.18 50.99 -146.24Q53.93 -143.3 53.93 -139.44L53.93 -139.44Q53.93 -135.41 50.99 -132.55Q48.05 -129.7 44.18 -129.7L44.18 -129.7Q40.15 -129.7 37.3 -132.55Q34.44 -135.41 34.44 -139.44L34.44 -139.44Q34.44 -143.3 37.3 -146.24Q40.15 -149.18 44.18 -149.18 M198.24 -87.36L198.24 -87.36L149.69 -2.52L168.17 -2.52Q174.89 -2.52 179.84 -5.21Q184.8 -7.9 187.82 -13.86Q190.85 -19.82 191.52 -29.57L191.52 -29.57L195.38 -29.57Q195.38 -18.82 195.55 -11.42Q195.72 -4.03 196.06 0.67L196.06 0.67Q188.66 0.34 180.68 0.17Q172.7 0 164.81 0L164.81 0Q156.41 0 147.67 0.25Q138.94 0.5 130.87 0.84L130.87 0.84L179.42 -84L160.94 -84Q153.55 -84 148.6 -81.31Q143.64 -78.62 141.04 -72.66Q138.43 -66.7 137.59 -56.95L137.59 -56.95L133.73 -56.95Q133.73 -67.87 133.56 -75.18Q133.39 -82.49 133.06 -87.19L133.06 -87.19Q140.45 -86.86 148.43 -86.69Q156.41 -86.52 164.3 -86.52L164.3 -86.52Q172.7 -86.52 181.44 -86.77Q190.18 -87.02 198.24 -87.36  M297.86 -117.94L297.86 -117.94Q304.25 -117.94 308.45 -116.51Q312.65 -115.08 315.34 -112.9L315.34 -112.9Q317.52 -111.22 318.86 -109.2Q320.21 -107.18 320.88 -105.17Q321.55 -103.15 321.55 -101.3L321.55 -101.3Q321.55 -97.1 318.61 -94.75Q315.67 -92.4 312.14 -92.4L312.14 -92.4Q308.78 -92.4 306.1 -94.58Q303.41 -96.77 303.41 -100.8L303.41 -100.8Q303.41 -104.5 305.93 -107.1Q308.45 -109.7 312.31 -110.04L312.31 -110.04Q311.64 -112.22 308.2 -113.82Q304.75 -115.42 299.54 -115.42L299.54 -115.42Q290.98 -115.42 285.52 -110.29Q280.06 -105.17 280.06 -95.42L280.06 -95.42Q280.06 -90.72 281.82 -85.85Q283.58 -80.98 288.62 -76.27L288.62 -76.27Q291.48 -76.78 294.5 -77.03Q297.53 -77.28 299.04 -77.28L299.04 -77.28Q302.06 -77.28 303.91 -76.27Q305.76 -75.26 305.76 -73.42L305.76 -73.42Q305.76 -71.9 304.5 -71.06Q303.24 -70.22 301.06 -70.22L301.06 -70.22Q297.86 -70.22 294.34 -71.65Q290.81 -73.08 288.79 -73.92L288.79 -73.92Q279.05 -71.06 273 -64.6Q266.95 -58.13 266.95 -46.37L266.95 -46.37Q266.95 -34.78 273 -26.71Q279.05 -18.65 289.21 -14.36Q299.38 -10.08 311.98 -10.08L311.98 -10.08Q320.88 -10.08 328.86 -12.18Q336.84 -14.28 342.97 -18.31Q349.1 -22.34 352.63 -27.97Q356.16 -33.6 356.16 -40.82L356.16 -40.82Q356.16 -44.02 354.82 -48.97Q353.47 -53.93 349.27 -58.72Q345.07 -63.5 336.34 -66.19L336.34 -66.19L338.35 -67.87Q350.62 -64.18 355.82 -56.03Q361.03 -47.88 361.03 -37.8L361.03 -37.8Q361.03 -27.72 354.98 -18.48Q348.94 -9.24 337.51 -3.44Q326.09 2.35 309.79 2.35L309.79 2.35Q298.87 2.35 289.04 -0.5Q279.22 -3.36 271.66 -8.82Q264.1 -14.28 259.73 -22.01Q255.36 -29.74 255.36 -39.48L255.36 -39.48Q255.36 -48.55 258.89 -55.02Q262.42 -61.49 267.62 -65.69Q272.83 -69.89 278.04 -72.16Q283.25 -74.42 286.44 -75.26L286.44 -75.26Q280.9 -77.78 277.12 -81.23Q273.34 -84.67 271.4 -88.79Q269.47 -92.9 269.47 -96.94L269.47 -96.94Q269.47 -100.97 271.32 -104.75Q273.17 -108.53 276.7 -111.55Q280.22 -114.58 285.52 -116.26Q290.81 -117.94 297.86 -117.94M359.02 -121.3L359.02 -121.3Q369.43 -121.3 376.49 -115.33Q383.54 -109.37 383.54 -98.62L383.54 -98.62Q383.54 -92.9 381.44 -88.45Q379.34 -84 375.73 -80.64Q372.12 -77.28 367.58 -75.1L367.58 -75.1Q363.72 -73.25 357.42 -71.06Q351.12 -68.88 343.98 -66.7Q336.84 -64.51 330.37 -62.41Q323.9 -60.31 319.87 -58.8L319.87 -58.8Q313.66 -56.45 309.37 -53Q305.09 -49.56 305.09 -44.18L305.09 -44.18Q305.09 -39.82 307.61 -36.79Q310.13 -33.77 313.74 -32.26Q317.35 -30.74 320.54 -30.74L320.54 -30.74Q322.06 -30.74 324.32 -31.16Q326.59 -31.58 328.44 -32.42Q330.29 -33.26 330.62 -34.44L330.62 -34.44Q327.94 -34.94 325.33 -36.88Q322.73 -38.81 322.73 -43.01L322.73 -43.01Q322.73 -47.04 325.42 -49.39Q328.1 -51.74 331.97 -51.74L331.97 -51.74Q336 -51.74 338.44 -49.22Q340.87 -46.7 340.87 -42.67L340.87 -42.67Q340.87 -37.97 337.76 -34.69Q334.66 -31.42 330.04 -29.82Q325.42 -28.22 320.88 -28.22L320.88 -28.22Q316.18 -28.22 311.3 -30.24Q306.43 -32.26 303.24 -36.54Q300.05 -40.82 300.05 -47.88L300.05 -47.88Q300.05 -53.76 302.65 -58.3Q305.26 -62.83 310.46 -66.36Q315.67 -69.89 323.23 -72.41L323.23 -72.41Q328.27 -74.09 335.5 -76.1Q342.72 -78.12 350.36 -80.47Q358.01 -82.82 364.22 -85.68L364.22 -85.68Q372.62 -89.54 375.65 -93.58Q378.67 -97.61 378.67 -101.81L378.67 -101.81Q378.67 -106.68 375.98 -110.46Q373.3 -114.24 368.84 -116.51Q364.39 -118.78 359.18 -118.78L359.18 -118.78Q357.17 -118.78 355.82 -118.44Q354.48 -118.1 354.14 -117.26L354.14 -117.26Q356.5 -116.09 357.67 -113.9Q358.85 -111.72 358.85 -109.54L358.85 -109.54Q358.85 -106.01 356.08 -103.66Q353.3 -101.3 349.44 -101.3L349.44 -101.3Q346.25 -101.3 343.39 -103.4Q340.54 -105.5 340.54 -109.7L340.54 -109.7Q340.54 -114.07 343.48 -116.59Q346.42 -119.11 350.7 -120.2Q354.98 -121.3 359.02 -121.3  M471.74 -120.79L471.74 -120.79Q480.14 -120.79 484.51 -118.86Q488.88 -116.93 492.24 -114.58L492.24 -114.58Q494.26 -113.4 495.52 -112.81Q496.78 -112.22 497.95 -112.22L497.95 -112.22Q499.63 -112.22 500.39 -114.07Q501.14 -115.92 501.65 -119.62L501.65 -119.62L505.51 -119.62Q505.34 -116.76 505.09 -112.81Q504.84 -108.86 504.76 -102.4Q504.67 -95.93 504.67 -85.34L504.67 -85.34L500.81 -85.34Q500.3 -93.41 497.28 -100.8Q494.26 -108.19 488.46 -112.9Q482.66 -117.6 473.26 -117.6L473.26 -117.6Q464.35 -117.6 458.56 -112.22Q452.76 -106.85 452.76 -98.11L452.76 -98.11Q452.76 -90.55 456.62 -85.43Q460.49 -80.3 466.96 -76.19Q473.42 -72.07 480.98 -67.37L480.98 -67.37Q489.72 -61.99 496.52 -56.7Q503.33 -51.41 507.28 -45.02Q511.22 -38.64 511.22 -29.57L511.22 -29.57Q511.22 -18.82 506.35 -11.76Q501.48 -4.7 493.42 -1.18Q485.35 2.35 475.61 2.35L475.61 2.35Q466.7 2.35 461.5 0.34Q456.29 -1.68 452.59 -3.86L452.59 -3.86Q448.9 -6.22 446.88 -6.22L446.88 -6.22Q445.2 -6.22 444.44 -4.37Q443.69 -2.52 443.18 1.18L443.18 1.18L439.32 1.18Q439.66 -2.35 439.74 -7.14Q439.82 -11.93 439.91 -19.66Q439.99 -27.38 439.99 -39.14L439.99 -39.14L443.86 -39.14Q444.53 -29.06 447.64 -20.33Q450.74 -11.59 457.21 -6.3Q463.68 -1.01 474.43 -1.01L474.43 -1.01Q479.98 -1.01 484.93 -3.28Q489.89 -5.54 493.08 -10.5Q496.27 -15.46 496.27 -23.35L496.27 -23.35Q496.27 -30.24 493 -35.36Q489.72 -40.49 483.84 -44.94Q477.96 -49.39 470.06 -54.1L470.06 -54.1Q462.17 -58.97 455.28 -64.01Q448.39 -69.05 444.28 -75.68Q440.16 -82.32 440.16 -91.73L440.16 -91.73Q440.16 -101.64 444.61 -108.11Q449.06 -114.58 456.29 -117.68Q463.51 -120.79 471.74 -120.79 M548.18 1.18L548.18 1.18Q541.3 1.18 536.26 -1.43Q531.22 -4.03 528.61 -8.74Q526.01 -13.44 526.01 -19.66L526.01 -19.66Q526.01 -27.05 529.45 -31.75Q532.9 -36.46 538.27 -39.31Q543.65 -42.17 549.61 -44.1Q555.58 -46.03 560.95 -47.8Q566.33 -49.56 569.77 -51.91Q573.22 -54.26 573.22 -58.13L573.22 -58.13L573.22 -68.54Q573.22 -75.6 571.12 -79.3Q569.02 -82.99 565.49 -84.25Q561.96 -85.51 557.59 -85.51L557.59 -85.51Q553.39 -85.51 548.6 -84.34Q543.82 -83.16 540.96 -79.46L540.96 -79.46Q544.15 -78.79 546.5 -76.1Q548.86 -73.42 548.86 -69.22L548.86 -69.22Q548.86 -65.02 546.17 -62.58Q543.48 -60.14 539.28 -60.14L539.28 -60.14Q534.41 -60.14 532.14 -63.25Q529.87 -66.36 529.87 -70.22L529.87 -70.22Q529.87 -74.59 532.06 -77.28Q534.24 -79.97 537.6 -82.32L537.6 -82.32Q541.46 -85.01 547.6 -86.94Q553.73 -88.87 561.46 -88.87L561.46 -88.87Q568.34 -88.87 573.22 -87.28Q578.09 -85.68 581.28 -82.66L581.28 -82.66Q585.65 -78.62 586.99 -72.83Q588.34 -67.03 588.34 -58.97L588.34 -58.97L588.34 -12.26Q588.34 -8.06 589.6 -6.22Q590.86 -4.37 593.54 -4.37L593.54 -4.37Q595.39 -4.37 597.07 -5.21Q598.75 -6.05 601.1 -7.9L601.1 -7.9L602.95 -5.04Q599.42 -2.35 596.23 -0.59Q593.04 1.18 587.66 1.18L587.66 1.18Q582.79 1.18 579.6 -0.5Q576.41 -2.18 574.81 -5.46Q573.22 -8.74 573.22 -13.78L573.22 -13.78Q568.68 -6.22 562.38 -2.52Q556.08 1.18 548.18 1.18M554.23 -5.54L554.23 -5.54Q559.78 -5.54 564.56 -8.74Q569.35 -11.93 573.22 -18.31L573.22 -18.31L573.22 -51.24Q571.2 -48.38 567.34 -46.45Q563.47 -44.52 558.94 -42.59Q554.4 -40.66 550.28 -38.05Q546.17 -35.45 543.48 -31.25Q540.79 -27.05 540.79 -20.33L540.79 -20.33Q540.79 -13.61 544.4 -9.58Q548.02 -5.54 554.23 -5.54 M686.11 -86.52L686.11 -86.52L686.11 -83.16Q682.92 -82.82 680.23 -80.3Q677.54 -77.78 675.19 -71.4L675.19 -71.4L647.64 0.84L644.78 0.84L613.87 -73.58Q610.68 -80.14 607.57 -81.56Q604.46 -82.99 602.45 -82.99L602.45 -82.99L602.45 -86.52Q606.14 -86.02 610.18 -85.76Q614.21 -85.51 618.91 -85.51L618.91 -85.51Q624.12 -85.51 629.92 -85.85Q635.71 -86.18 640.75 -86.52L640.75 -86.52L640.75 -82.99Q636.55 -82.99 633.28 -82.4Q630 -81.82 629.16 -78.88Q628.32 -75.94 631.18 -68.88L631.18 -68.88L651.84 -17.64L650.83 -17.3L669.98 -67.37Q672.17 -72.91 671.75 -76.19Q671.33 -79.46 668.3 -81.14Q665.28 -82.82 659.23 -83.16L659.23 -83.16L659.23 -86.52Q662.26 -86.35 664.44 -86.27Q666.62 -86.18 668.72 -86.1Q670.82 -86.02 673.34 -86.02L673.34 -86.02Q677.21 -86.02 680.32 -86.18Q683.42 -86.35 686.11 -86.52M644.45 -0.5L647.64 0.84L641.93 15.46Q640.25 19.66 638.48 22.51Q636.72 25.37 634.7 27.22L634.7 27.22Q632.02 29.74 628.32 30.66Q624.62 31.58 621.6 31.58L621.6 31.58Q618.41 31.58 615.8 30.41Q613.2 29.23 611.69 26.96Q610.18 24.7 610.18 21.5L610.18 21.5Q610.18 17.47 612.53 15.04Q614.88 12.6 619.08 12.6L619.08 12.6Q622.61 12.6 625.13 14.62Q627.65 16.63 627.65 20.5L627.65 20.5Q627.65 23.35 626.3 25.2Q624.96 27.05 623.11 28.06L623.11 28.06Q623.45 28.22 623.7 28.22Q623.95 28.22 624.12 28.22L624.12 28.22Q628.66 28.22 632.18 25.12Q635.71 22.01 638.4 15.12L638.4 15.12L644.45 -0.5 M733.49 -88.87L733.49 -88.87Q748.27 -88.87 756.59 -79.88Q764.9 -70.9 764.9 -51.91L764.9 -51.91L705.6 -51.91L705.43 -55.1L748.78 -55.1Q749.11 -63.34 747.43 -70.31Q745.75 -77.28 742.14 -81.48Q738.53 -85.68 732.82 -85.68L732.82 -85.68Q725.09 -85.68 719.12 -77.95Q713.16 -70.22 711.98 -53.42L711.98 -53.42L712.49 -52.75Q712.15 -50.23 711.98 -47.21Q711.82 -44.18 711.82 -41.16L711.82 -41.16Q711.82 -29.74 715.51 -21.5Q719.21 -13.27 725.17 -8.99Q731.14 -4.7 737.52 -4.7L737.52 -4.7Q742.56 -4.7 747.1 -6.3Q751.63 -7.9 755.5 -11.59Q759.36 -15.29 762.22 -21.5L762.22 -21.5L765.58 -20.16Q763.73 -14.62 759.53 -9.41Q755.33 -4.2 748.94 -0.92Q742.56 2.35 734.16 2.35L734.16 2.35Q722.06 2.35 713.41 -3.19Q704.76 -8.74 700.14 -18.56Q695.52 -28.39 695.52 -41.16L695.52 -41.16Q695.52 -55.94 700.22 -66.61Q704.93 -77.28 713.5 -83.08Q722.06 -88.87 733.49 -88.87" fill="#1A1A1A" transform="translate(90.00 603.18)"/><path d="M7.04 0L6.12 0L6.12 -32.2L17.02 -32.2Q20.98 -32.2 23.81 -30.93Q26.63 -29.67 28.15 -27.32Q29.67 -24.98 29.67 -21.62L29.67 -21.62Q29.67 -18.31 28.15 -15.94Q26.63 -13.57 23.81 -12.3Q20.98 -11.04 17.02 -11.04L17.02 -11.04L6.62 -11.04L7.04 -11.45L7.04 0M7.04 -31.69L7.04 -11.55L6.62 -11.91L17.11 -11.91Q22.77 -11.91 25.76 -14.47Q28.75 -17.02 28.75 -21.62L28.75 -21.62Q28.75 -26.27 25.76 -28.8Q22.77 -31.33 17.11 -31.33L17.11 -31.33L6.62 -31.33L7.04 -31.69 M64.64 0.14L64.64 0.14Q61.15 0.14 58.04 -1.15Q54.94 -2.44 53.33 -4.42L53.33 -4.42L53.97 -5.01Q55.49 -3.22 58.36 -1.98Q61.24 -0.74 64.6 -0.74L64.6 -0.74Q68.09 -0.74 70.32 -1.7Q72.56 -2.67 73.64 -4.3Q74.72 -5.93 74.72 -7.91L74.72 -7.91Q74.72 -10.21 73.61 -11.61Q72.51 -13.02 70.67 -13.82Q68.83 -14.63 66.67 -15.16Q64.51 -15.69 62.32 -16.24Q60.14 -16.79 58.3 -17.69Q56.46 -18.58 55.35 -20.15Q54.25 -21.71 54.25 -24.24L54.25 -24.24Q54.25 -26.36 55.38 -28.2Q56.5 -30.04 58.87 -31.19Q61.24 -32.34 65.01 -32.34L65.01 -32.34Q67.59 -32.34 70.1 -31.53Q72.6 -30.73 74.35 -29.39L74.35 -29.39L73.84 -28.66Q71.91 -30.08 69.57 -30.77Q67.22 -31.46 65.06 -31.46L65.06 -31.46Q61.7 -31.46 59.49 -30.47Q57.28 -29.49 56.23 -27.85Q55.17 -26.22 55.17 -24.2L55.17 -24.2Q55.17 -21.85 56.27 -20.45Q57.38 -19.04 59.22 -18.24Q61.06 -17.43 63.24 -16.9Q65.43 -16.38 67.59 -15.8Q69.75 -15.23 71.59 -14.33Q73.43 -13.43 74.53 -11.91Q75.64 -10.4 75.64 -7.91L75.64 -7.91Q75.64 -5.8 74.49 -3.96Q73.34 -2.12 70.9 -0.99Q68.46 0.14 64.64 0.14 M103.34 0L102.42 0L102.42 -32.2L103.34 -32.2L103.34 0M102.88 -36.39L102.88 -36.39Q102.42 -36.39 102.06 -36.75Q101.69 -37.12 101.69 -37.58L101.69 -37.58Q101.69 -38.09 102.06 -38.43Q102.42 -38.78 102.88 -38.78L102.88 -38.78Q103.39 -38.78 103.74 -38.43Q104.08 -38.09 104.08 -37.58L104.08 -37.58Q104.08 -37.12 103.74 -36.75Q103.39 -36.39 102.88 -36.39 M142.55 -16.84L134.32 -8.37L134.32 -9.61L156.3 -32.2L157.55 -32.2L143.1 -17.34L142.55 -16.84M134.5 0L133.58 0L133.58 -32.2L134.5 -32.2L134.5 0M158.6 0L157.36 0L142.04 -17.34L142.73 -17.94L158.6 0 M196.57 0.14L196.57 0.14Q193.03 0.14 190.01 -1.08Q187 -2.3 184.77 -4.51Q182.54 -6.72 181.3 -9.66Q180.05 -12.6 180.05 -16.1L180.05 -16.1Q180.05 -19.6 181.3 -22.54Q182.54 -25.48 184.77 -27.69Q187 -29.9 190.01 -31.12Q193.03 -32.34 196.57 -32.34L196.57 -32.34Q200.11 -32.34 203.12 -31.12Q206.14 -29.9 208.37 -27.69Q210.6 -25.48 211.84 -22.54Q213.08 -19.6 213.08 -16.1L213.08 -16.1Q213.08 -12.6 211.84 -9.66Q210.6 -6.72 208.37 -4.51Q206.14 -2.3 203.12 -1.08Q200.11 0.14 196.57 0.14M196.57 -0.74L196.57 -0.74Q199.88 -0.74 202.73 -1.89Q205.58 -3.04 207.7 -5.13Q209.82 -7.22 210.99 -10Q212.16 -12.79 212.16 -16.1L212.16 -16.1Q212.16 -19.41 210.99 -22.19Q209.82 -24.98 207.7 -27.07Q205.58 -29.16 202.73 -30.31Q199.88 -31.46 196.57 -31.46L196.57 -31.46Q193.26 -31.46 190.4 -30.31Q187.55 -29.16 185.44 -27.07Q183.32 -24.98 182.15 -22.19Q180.97 -19.41 180.97 -16.1L180.97 -16.1Q180.97 -12.79 182.15 -10Q183.32 -7.22 185.44 -5.13Q187.55 -3.04 190.4 -1.89Q193.26 -0.74 196.57 -0.74 M260.02 0L239.91 0L239.91 -32.2L240.83 -32.2L240.83 -0.87L260.02 -0.87L260.02 0 M297.7 0.14L297.7 0.14Q294.16 0.14 291.15 -1.08Q288.14 -2.3 285.9 -4.51Q283.67 -6.72 282.43 -9.66Q281.19 -12.6 281.19 -16.1L281.19 -16.1Q281.19 -19.6 282.43 -22.54Q283.67 -25.48 285.9 -27.69Q288.14 -29.9 291.15 -31.12Q294.16 -32.34 297.7 -32.34L297.7 -32.34Q301.25 -32.34 304.26 -31.12Q307.27 -29.9 309.5 -27.69Q311.73 -25.48 312.98 -22.54Q314.22 -19.6 314.22 -16.1L314.22 -16.1Q314.22 -12.6 312.98 -9.66Q311.73 -6.72 309.5 -4.51Q307.27 -2.3 304.26 -1.08Q301.25 0.14 297.7 0.14M297.7 -0.74L297.7 -0.74Q301.02 -0.74 303.87 -1.89Q306.72 -3.04 308.84 -5.13Q310.95 -7.22 312.12 -10Q313.3 -12.79 313.3 -16.1L313.3 -16.1Q313.3 -19.41 312.12 -22.19Q310.95 -24.98 308.84 -27.07Q306.72 -29.16 303.87 -30.31Q301.02 -31.46 297.7 -31.46L297.7 -31.46Q294.39 -31.46 291.54 -30.31Q288.69 -29.16 286.57 -27.07Q284.46 -24.98 283.28 -22.19Q282.11 -19.41 282.11 -16.1L282.11 -16.1Q282.11 -12.79 283.28 -10Q284.46 -7.22 286.57 -5.13Q288.69 -3.04 291.54 -1.89Q294.39 -0.74 297.7 -0.74 M343.12 0.14L343.12 0.14Q340.68 0.14 338.54 -1.08Q336.4 -2.3 335.12 -4.42L335.12 -4.42L335.76 -4.97Q337.09 -2.94 339 -1.84Q340.91 -0.74 343.17 -0.74L343.17 -0.74Q350.11 -0.74 350.11 -9.02L350.11 -9.02L350.11 -31.33L338.06 -31.33L338.06 -32.2L351.03 -32.2L351.03 -8.92Q351.03 -4.42 349.05 -2.14Q347.08 0.14 343.12 0.14 M381.91 0L380.99 0L380.99 -32.2L381.91 -32.2L381.91 0M381.45 -36.39L381.45 -36.39Q380.99 -36.39 380.62 -36.75Q380.26 -37.12 380.26 -37.58L380.26 -37.58Q380.26 -38.09 380.62 -38.43Q380.99 -38.78 381.45 -38.78L381.45 -38.78Q381.96 -38.78 382.3 -38.43Q382.65 -38.09 382.65 -37.58L382.65 -37.58Q382.65 -37.12 382.3 -36.75Q381.96 -36.39 381.45 -36.39" fill="#1A1A1A" fill-opacity="0.72" transform="translate(278.41 703.55)"/></svg>