<svg width="1216" height="480" viewBox="0 0 1216 480" xmlns="http://www.w3.org/2000/svg"><g transform="translate(90 90) scale(1.5)">
    <path d="M132 25 A82 82 0 1 1 68 25" fill="none" stroke="#23472E" stroke-width="5.5" stroke-linecap="round"/>
    <path d="M0 0 C-14 -10 -15 -34 0 -50 C15 -34 14 -10 0 0 Z" fill="#A7BFA7" transform="translate(86 142) rotate(-43) scale(1.4)"/>
    <path d="M0 0 C-14 -10 -15 -34 0 -50 C15 -34 14 -10 0 0 Z" fill="#7E9E80" transform="translate(114 142) rotate(43) scale(1.4)"/>
    <circle cx="100" cy="64" r="9.5" fill="#23472E"/>
    <path d="M100 76 C94 88 94 116 100 130 C106 116 106 88 100 76 Z" fill="#23472E"/>
    <path d="M99 85 C89 80 81 69 79 58" stroke="#23472E" stroke-width="6.5" stroke-linecap="round" fill="none"/>
    <path d="M101 85 C111 80 119 69 121 58" stroke="#23472E" stroke-width="6.5" stroke-linecap="round" fill="none"/></g><path d="M55.65 -108.3L55.65 -108.3Q69.9 -108.3 80.63 -101.85Q91.35 -95.4 97.28 -83.32Q103.2 -71.25 103.2 -54L103.2 -54Q103.2 -37.2 97.13 -24.6Q91.05 -12 80.25 -4.95Q69.45 2.1 55.5 2.1L55.5 2.1Q41.25 2.1 30.53 -4.35Q19.8 -10.8 13.88 -22.95Q7.95 -35.1 7.95 -52.2L7.95 -52.2Q7.95 -69 14.1 -81.6Q20.25 -94.2 30.98 -101.25Q41.7 -108.3 55.65 -108.3M55.05 -105.6L55.05 -105.6Q45.3 -105.6 38.1 -98.85Q30.9 -92.1 26.93 -80.25Q22.95 -68.4 22.95 -52.8L22.95 -52.8Q22.95 -36.9 27.38 -25.12Q31.8 -13.35 39.38 -6.97Q46.95 -0.6 56.1 -0.6L56.1 -0.6Q65.85 -0.6 73.05 -7.35Q80.25 -14.1 84.23 -26.02Q88.2 -37.95 88.2 -53.4L88.2 -53.4Q88.2 -69.45 83.78 -81.15Q79.35 -92.85 71.85 -99.22Q64.35 -105.6 55.05 -105.6M71.25 -133.2L71.25 -133.2Q74.7 -133.2 77.33 -130.57Q79.95 -127.95 79.95 -124.5L79.95 -124.5Q79.95 -120.9 77.33 -118.35Q74.7 -115.8 71.25 -115.8L71.25 -115.8Q67.65 -115.8 65.1 -118.35Q62.55 -120.9 62.55 -124.5L62.55 -124.5Q62.55 -127.95 65.1 -130.57Q67.65 -133.2 71.25 -133.2M39.45 -133.2L39.45 -133.2Q42.9 -133.2 45.53 -130.57Q48.15 -127.95 48.15 -124.5L48.15 -124.5Q48.15 -120.9 45.53 -118.35Q42.9 -115.8 39.45 -115.8L39.45 -115.8Q35.85 -115.8 33.3 -118.35Q30.75 -120.9 30.75 -124.5L30.75 -124.5Q30.75 -127.95 33.3 -130.57Q35.85 -133.2 39.45 -133.2 M177 -78L177 -78L133.65 -2.25L150.15 -2.25Q156.15 -2.25 160.57 -4.65Q165 -7.05 167.7 -12.37Q170.4 -17.7 171 -26.4L171 -26.4L174.45 -26.4Q174.45 -16.8 174.6 -10.2Q174.75 -3.6 175.05 0.6L175.05 0.6Q168.45 0.3 161.32 0.15Q154.2 0 147.15 0L147.15 0Q139.65 0 131.85 0.22Q124.05 0.45 116.85 0.75L116.85 0.75L160.2 -75L143.7 -75Q137.1 -75 132.67 -72.6Q128.25 -70.2 125.92 -64.87Q123.6 -59.55 122.85 -50.85L122.85 -50.85L119.4 -50.85Q119.4 -60.6 119.25 -67.12Q119.1 -73.65 118.8 -77.85L118.8 -77.85Q125.4 -77.55 132.52 -77.4Q139.65 -77.25 146.7 -77.25L146.7 -77.25Q154.2 -77.25 162 -77.47Q169.8 -77.7 177 -78  M265.95 -105.3L265.95 -105.3Q271.65 -105.3 275.4 -104.02Q279.15 -102.75 281.55 -100.8L281.55 -100.8Q283.5 -99.3 284.7 -97.5Q285.9 -95.7 286.5 -93.9Q287.1 -92.1 287.1 -90.45L287.1 -90.45Q287.1 -86.7 284.47 -84.6Q281.85 -82.5 278.7 -82.5L278.7 -82.5Q275.7 -82.5 273.3 -84.45Q270.9 -86.4 270.9 -90L270.9 -90Q270.9 -93.3 273.15 -95.62Q275.4 -97.95 278.85 -98.25L278.85 -98.25Q278.25 -100.2 275.17 -101.62Q272.1 -103.05 267.45 -103.05L267.45 -103.05Q259.8 -103.05 254.93 -98.47Q250.05 -93.9 250.05 -85.2L250.05 -85.2Q250.05 -81 251.62 -76.65Q253.2 -72.3 257.7 -68.1L257.7 -68.1Q260.25 -68.55 262.95 -68.77Q265.65 -69 267 -69L267 -69Q269.7 -69 271.35 -68.1Q273 -67.2 273 -65.55L273 -65.55Q273 -64.2 271.88 -63.45Q270.75 -62.7 268.8 -62.7L268.8 -62.7Q265.95 -62.7 262.8 -63.97Q259.65 -65.25 257.85 -66L257.85 -66Q249.15 -63.45 243.75 -57.67Q238.35 -51.9 238.35 -41.4L238.35 -41.4Q238.35 -31.05 243.75 -23.85Q249.15 -16.65 258.22 -12.82Q267.3 -9 278.55 -9L278.55 -9Q286.5 -9 293.63 -10.87Q300.75 -12.75 306.22 -16.35Q311.7 -19.95 314.85 -24.97Q318 -30 318 -36.45L318 -36.45Q318 -39.3 316.8 -43.72Q315.6 -48.15 311.85 -52.42Q308.1 -56.7 300.3 -59.1L300.3 -59.1L302.1 -60.6Q313.05 -57.3 317.7 -50.02Q322.35 -42.75 322.35 -33.75L322.35 -33.75Q322.35 -24.75 316.95 -16.5Q311.55 -8.25 301.35 -3.07Q291.15 2.1 276.6 2.1L276.6 2.1Q266.85 2.1 258.08 -0.45Q249.3 -3 242.55 -7.87Q235.8 -12.75 231.9 -19.65Q228 -26.55 228 -35.25L228 -35.25Q228 -43.35 231.15 -49.12Q234.3 -54.9 238.95 -58.65Q243.6 -62.4 248.25 -64.42Q252.9 -66.45 255.75 -67.2L255.75 -67.2Q250.8 -69.45 247.43 -72.52Q244.05 -75.6 242.33 -79.27Q240.6 -82.95 240.6 -86.55L240.6 -86.55Q240.6 -90.15 242.25 -93.52Q243.9 -96.9 247.05 -99.6Q250.2 -102.3 254.93 -103.8Q259.65 -105.3 265.95 -105.3M320.55 -108.3L320.55 -108.3Q329.85 -108.3 336.15 -102.97Q342.45 -97.65 342.45 -88.05L342.45 -88.05Q342.45 -82.95 340.58 -78.97Q338.7 -75 335.48 -72Q332.25 -69 328.2 -67.05L328.2 -67.05Q324.75 -65.4 319.13 -63.45Q313.5 -61.5 307.13 -59.55Q300.75 -57.6 294.97 -55.72Q289.2 -53.85 285.6 -52.5L285.6 -52.5Q280.05 -50.4 276.22 -47.32Q272.4 -44.25 272.4 -39.45L272.4 -39.45Q272.4 -35.55 274.65 -32.85Q276.9 -30.15 280.13 -28.8Q283.35 -27.45 286.2 -27.45L286.2 -27.45Q287.55 -27.45 289.58 -27.82Q291.6 -28.2 293.25 -28.95Q294.9 -29.7 295.2 -30.75L295.2 -30.75Q292.8 -31.2 290.47 -32.92Q288.15 -34.65 288.15 -38.4L288.15 -38.4Q288.15 -42 290.55 -44.1Q292.95 -46.2 296.4 -46.2L296.4 -46.2Q300 -46.2 302.17 -43.95Q304.35 -41.7 304.35 -38.1L304.35 -38.1Q304.35 -33.9 301.58 -30.97Q298.8 -28.05 294.67 -26.62Q290.55 -25.2 286.5 -25.2L286.5 -25.2Q282.3 -25.2 277.95 -27Q273.6 -28.8 270.75 -32.62Q267.9 -36.45 267.9 -42.75L267.9 -42.75Q267.9 -48 270.22 -52.05Q272.55 -56.1 277.2 -59.25Q281.85 -62.4 288.6 -64.65L288.6 -64.65Q293.1 -66.15 299.55 -67.95Q306 -69.75 312.83 -71.85Q319.65 -73.95 325.2 -76.5L325.2 -76.5Q332.7 -79.95 335.4 -83.55Q338.1 -87.15 338.1 -90.9L338.1 -90.9Q338.1 -95.25 335.7 -98.62Q333.3 -102 329.33 -104.02Q325.35 -106.05 320.7 -106.05L320.7 -106.05Q318.9 -106.05 317.7 -105.75Q316.5 -105.45 316.2 -104.7L316.2 -104.7Q318.3 -103.65 319.35 -101.7Q320.4 -99.75 320.4 -97.8L320.4 -97.8Q320.4 -94.65 317.92 -92.55Q315.45 -90.45 312 -90.45L312 -90.45Q309.15 -90.45 306.6 -92.32Q304.05 -94.2 304.05 -97.95L304.05 -97.95Q304.05 -101.85 306.67 -104.1Q309.3 -106.35 313.13 -107.32Q316.95 -108.3 320.55 -108.3  M421.2 -107.85L421.2 -107.85Q428.7 -107.85 432.6 -106.12Q436.5 -104.4 439.5 -102.3L439.5 -102.3Q441.3 -101.25 442.43 -100.72Q443.55 -100.2 444.6 -100.2L444.6 -100.2Q446.1 -100.2 446.78 -101.85Q447.45 -103.5 447.9 -106.8L447.9 -106.8L451.35 -106.8Q451.2 -104.25 450.98 -100.72Q450.75 -97.2 450.68 -91.42Q450.6 -85.65 450.6 -76.2L450.6 -76.2L447.15 -76.2Q446.7 -83.4 444 -90Q441.3 -96.6 436.13 -100.8Q430.95 -105 422.55 -105L422.55 -105Q414.6 -105 409.43 -100.2Q404.25 -95.4 404.25 -87.6L404.25 -87.6Q404.25 -80.85 407.7 -76.27Q411.15 -71.7 416.93 -68.02Q422.7 -64.35 429.45 -60.15L429.45 -60.15Q437.25 -55.35 443.33 -50.62Q449.4 -45.9 452.93 -40.2Q456.45 -34.5 456.45 -26.4L456.45 -26.4Q456.45 -16.8 452.1 -10.5Q447.75 -4.2 440.55 -1.05Q433.35 2.1 424.65 2.1L424.65 2.1Q416.7 2.1 412.05 0.3Q407.4 -1.5 404.1 -3.45L404.1 -3.45Q400.8 -5.55 399 -5.55L399 -5.55Q397.5 -5.55 396.83 -3.9Q396.15 -2.25 395.7 1.05L395.7 1.05L392.25 1.05Q392.55 -2.1 392.63 -6.37Q392.7 -10.65 392.78 -17.55Q392.85 -24.45 392.85 -34.95L392.85 -34.95L396.3 -34.95Q396.9 -25.95 399.68 -18.15Q402.45 -10.35 408.23 -5.62Q414 -0.9 423.6 -0.9L423.6 -0.9Q428.55 -0.9 432.98 -2.92Q437.4 -4.95 440.25 -9.37Q443.1 -13.8 443.1 -20.85L443.1 -20.85Q443.1 -27 440.18 -31.57Q437.25 -36.15 432 -40.12Q426.75 -44.1 419.7 -48.3L419.7 -48.3Q412.65 -52.65 406.5 -57.15Q400.35 -61.65 396.68 -67.57Q393 -73.5 393 -81.9L393 -81.9Q393 -90.75 396.98 -96.52Q400.95 -102.3 407.4 -105.07Q413.85 -107.85 421.2 -107.85 M489.45 1.05L489.45 1.05Q483.3 1.05 478.8 -1.27Q474.3 -3.6 471.98 -7.8Q469.65 -12 469.65 -17.55L469.65 -17.55Q469.65 -24.15 472.73 -28.35Q475.8 -32.55 480.6 -35.1Q485.4 -37.65 490.73 -39.37Q496.05 -41.1 500.85 -42.67Q505.65 -44.25 508.73 -46.35Q511.8 -48.45 511.8 -51.9L511.8 -51.9L511.8 -61.2Q511.8 -67.5 509.93 -70.8Q508.05 -74.1 504.9 -75.22Q501.75 -76.35 497.85 -76.35L497.85 -76.35Q494.1 -76.35 489.83 -75.3Q485.55 -74.25 483 -70.95L483 -70.95Q485.85 -70.35 487.95 -67.95Q490.05 -65.55 490.05 -61.8L490.05 -61.8Q490.05 -58.05 487.65 -55.87Q485.25 -53.7 481.5 -53.7L481.5 -53.7Q477.15 -53.7 475.13 -56.47Q473.1 -59.25 473.1 -62.7L473.1 -62.7Q473.1 -66.6 475.05 -69Q477 -71.4 480 -73.5L480 -73.5Q483.45 -75.9 488.93 -77.62Q494.4 -79.35 501.3 -79.35L501.3 -79.35Q507.45 -79.35 511.8 -77.92Q516.15 -76.5 519 -73.8L519 -73.8Q522.9 -70.2 524.1 -65.02Q525.3 -59.85 525.3 -52.65L525.3 -52.65L525.3 -10.95Q525.3 -7.2 526.42 -5.55Q527.55 -3.9 529.95 -3.9L529.95 -3.9Q531.6 -3.9 533.1 -4.65Q534.6 -5.4 536.7 -7.05L536.7 -7.05L538.35 -4.5Q535.2 -2.1 532.35 -0.52Q529.5 1.05 524.7 1.05L524.7 1.05Q520.35 1.05 517.5 -0.45Q514.65 -1.95 513.23 -4.87Q511.8 -7.8 511.8 -12.3L511.8 -12.3Q507.75 -5.55 502.13 -2.25Q496.5 1.05 489.45 1.05M494.85 -4.95L494.85 -4.95Q499.8 -4.95 504.08 -7.8Q508.35 -10.65 511.8 -16.35L511.8 -16.35L511.8 -45.75Q510 -43.2 506.55 -41.47Q503.1 -39.75 499.05 -38.02Q495 -36.3 491.33 -33.97Q487.65 -31.65 485.25 -27.9Q482.85 -24.15 482.85 -18.15L482.85 -18.15Q482.85 -12.15 486.08 -8.55Q489.3 -4.95 494.85 -4.95 M612.6 -77.25L612.6 -77.25L612.6 -74.25Q609.75 -73.95 607.35 -71.7Q604.95 -69.45 602.85 -63.75L602.85 -63.75L578.25 0.75L575.7 0.75L548.1 -65.7Q545.25 -71.55 542.48 -72.82Q539.7 -74.1 537.9 -74.1L537.9 -74.1L537.9 -77.25Q541.2 -76.8 544.8 -76.57Q548.4 -76.35 552.6 -76.35L552.6 -76.35Q557.25 -76.35 562.42 -76.65Q567.6 -76.95 572.1 -77.25L572.1 -77.25L572.1 -74.1Q568.35 -74.1 565.42 -73.57Q562.5 -73.05 561.75 -70.42Q561 -67.8 563.55 -61.5L563.55 -61.5L582 -15.75L581.1 -15.45L598.2 -60.15Q600.15 -65.1 599.78 -68.02Q599.4 -70.95 596.7 -72.45Q594 -73.95 588.6 -74.25L588.6 -74.25L588.6 -77.25Q591.3 -77.1 593.25 -77.02Q595.2 -76.95 597.08 -76.87Q598.95 -76.8 601.2 -76.8L601.2 -76.8Q604.65 -76.8 607.42 -76.95Q610.2 -77.1 612.6 -77.25M575.4 -0.45L578.25 0.75L573.15 13.8Q571.65 17.55 570.08 20.1Q568.5 22.65 566.7 24.3L566.7 24.3Q564.3 26.55 561 27.38Q557.7 28.2 555 28.2L555 28.2Q552.15 28.2 549.83 27.15Q547.5 26.1 546.15 24.08Q544.8 22.05 544.8 19.2L544.8 19.2Q544.8 15.6 546.9 13.43Q549 11.25 552.75 11.25L552.75 11.25Q555.9 11.25 558.15 13.05Q560.4 14.85 560.4 18.3L560.4 18.3Q560.4 20.85 559.2 22.5Q558 24.15 556.35 25.05L556.35 25.05Q556.65 25.2 556.88 25.2Q557.1 25.2 557.25 25.2L557.25 25.2Q561.3 25.2 564.45 22.43Q567.6 19.65 570 13.5L570 13.5L575.4 -0.45 M654.9 -79.35L654.9 -79.35Q668.1 -79.35 675.53 -71.32Q682.95 -63.3 682.95 -46.35L682.95 -46.35L630 -46.35L629.85 -49.2L668.55 -49.2Q668.85 -56.55 667.35 -62.77Q665.85 -69 662.63 -72.75Q659.4 -76.5 654.3 -76.5L654.3 -76.5Q647.4 -76.5 642.08 -69.6Q636.75 -62.7 635.7 -47.7L635.7 -47.7L636.15 -47.1Q635.85 -44.85 635.7 -42.15Q635.55 -39.45 635.55 -36.75L635.55 -36.75Q635.55 -26.55 638.85 -19.2Q642.15 -11.85 647.48 -8.02Q652.8 -4.2 658.5 -4.2L658.5 -4.2Q663 -4.2 667.05 -5.62Q671.1 -7.05 674.55 -10.35Q678 -13.65 680.55 -19.2L680.55 -19.2L683.55 -18Q681.9 -13.05 678.15 -8.4Q674.4 -3.75 668.7 -0.82Q663 2.1 655.5 2.1L655.5 2.1Q644.7 2.1 636.98 -2.85Q629.25 -7.8 625.13 -16.57Q621 -25.35 621 -36.75L621 -36.75Q621 -49.95 625.2 -59.47Q629.4 -69 637.05 -74.17Q644.7 -79.35 654.9 -79.35" fill="#23472E" transform="translate(442.00 263.58)"/><path d="M6.12 0L5.32 0L5.32 -28L14.8 -28Q18.24 -28 20.7 -26.9Q23.16 -25.8 24.48 -23.76Q25.8 -21.72 25.8 -18.8L25.8 -18.8Q25.8 -15.92 24.48 -13.86Q23.16 -11.8 20.7 -10.7Q18.24 -9.6 14.8 -9.6L14.8 -9.6L5.76 -9.6L6.12 -9.96L6.12 0M6.12 -27.56L6.12 -10.04L5.76 -10.36L14.88 -10.36Q19.8 -10.36 22.4 -12.58Q25 -14.8 25 -18.8L25 -18.8Q25 -22.84 22.4 -25.04Q19.8 -27.24 14.88 -27.24L14.88 -27.24L5.76 -27.24L6.12 -27.56 M56.56 0.12L56.56 0.12Q53.52 0.12 50.82 -1Q48.12 -2.12 46.72 -3.84L46.72 -3.84L47.28 -4.36Q48.6 -2.8 51.1 -1.72Q53.6 -0.64 56.52 -0.64L56.52 -0.64Q59.56 -0.64 61.5 -1.48Q63.44 -2.32 64.38 -3.74Q65.32 -5.16 65.32 -6.88L65.32 -6.88Q65.32 -8.88 64.36 -10.1Q63.4 -11.32 61.8 -12.02Q60.2 -12.72 58.32 -13.18Q56.44 -13.64 54.54 -14.12Q52.64 -14.6 51.04 -15.38Q49.44 -16.16 48.48 -17.52Q47.52 -18.88 47.52 -21.08L47.52 -21.08Q47.52 -22.92 48.5 -24.52Q49.48 -26.12 51.54 -27.12Q53.6 -28.12 56.88 -28.12L56.88 -28.12Q59.12 -28.12 61.3 -27.42Q63.48 -26.72 65 -25.56L65 -25.56L64.56 -24.92Q62.88 -26.16 60.84 -26.76Q58.8 -27.36 56.92 -27.36L56.92 -27.36Q54 -27.36 52.08 -26.5Q50.16 -25.64 49.24 -24.22Q48.32 -22.8 48.32 -21.04L48.32 -21.04Q48.32 -19 49.28 -17.78Q50.24 -16.56 51.84 -15.86Q53.44 -15.16 55.34 -14.7Q57.24 -14.24 59.12 -13.74Q61 -13.24 62.6 -12.46Q64.2 -11.68 65.16 -10.36Q66.12 -9.04 66.12 -6.88L66.12 -6.88Q66.12 -5.04 65.12 -3.44Q64.12 -1.84 62 -0.86Q59.88 0.12 56.56 0.12 M90.56 0L89.76 0L89.76 -28L90.56 -28L90.56 0M90.16 -31.64L90.16 -31.64Q89.76 -31.64 89.44 -31.96Q89.12 -32.28 89.12 -32.68L89.12 -32.68Q89.12 -33.12 89.44 -33.42Q89.76 -33.72 90.16 -33.72L90.16 -33.72Q90.6 -33.72 90.9 -33.42Q91.2 -33.12 91.2 -32.68L91.2 -32.68Q91.2 -32.28 90.9 -31.96Q90.6 -31.64 90.16 -31.64 M125 -14.64L117.84 -7.28L117.84 -8.36L136.96 -28L138.04 -28L125.48 -15.08L125 -14.64M118 0L117.2 0L117.2 -28L118 -28L118 0M138.96 0L137.88 0L124.56 -15.08L125.16 -15.6L138.96 0 M172.32 0.12L172.32 0.12Q169.24 0.12 166.62 -0.94Q164 -2 162.06 -3.92Q160.12 -5.84 159.04 -8.4Q157.96 -10.96 157.96 -14L157.96 -14Q157.96 -17.04 159.04 -19.6Q160.12 -22.16 162.06 -24.08Q164 -26 166.62 -27.06Q169.24 -28.12 172.32 -28.12L172.32 -28.12Q175.4 -28.12 178.02 -27.06Q180.64 -26 182.58 -24.08Q184.52 -22.16 185.6 -19.6Q186.68 -17.04 186.68 -14L186.68 -14Q186.68 -10.96 185.6 -8.4Q184.52 -5.84 182.58 -3.92Q180.64 -2 178.02 -0.94Q175.4 0.12 172.32 0.12M172.32 -0.64L172.32 -0.64Q175.2 -0.64 177.68 -1.64Q180.16 -2.64 182 -4.46Q183.84 -6.28 184.86 -8.7Q185.88 -11.12 185.88 -14L185.88 -14Q185.88 -16.88 184.86 -19.3Q183.84 -21.72 182 -23.54Q180.16 -25.36 177.68 -26.36Q175.2 -27.36 172.32 -27.36L172.32 -27.36Q169.44 -27.36 166.96 -26.36Q164.48 -25.36 162.64 -23.54Q160.8 -21.72 159.78 -19.3Q158.76 -16.88 158.76 -14L158.76 -14Q158.76 -11.12 159.78 -8.7Q160.8 -6.28 162.64 -4.46Q164.48 -2.64 166.96 -1.64Q169.44 -0.64 172.32 -0.64 M227.84 0L210.36 0L210.36 -28L211.16 -28L211.16 -0.76L227.84 -0.76L227.84 0 M260.96 0.12L260.96 0.12Q257.88 0.12 255.26 -0.94Q252.64 -2 250.7 -3.92Q248.76 -5.84 247.68 -8.4Q246.6 -10.96 246.6 -14L246.6 -14Q246.6 -17.04 247.68 -19.6Q248.76 -22.16 250.7 -24.08Q252.64 -26 255.26 -27.06Q257.88 -28.12 260.96 -28.12L260.96 -28.12Q264.04 -28.12 266.66 -27.06Q269.28 -26 271.22 -24.08Q273.16 -22.16 274.24 -19.6Q275.32 -17.04 275.32 -14L275.32 -14Q275.32 -10.96 274.24 -8.4Q273.16 -5.84 271.22 -3.92Q269.28 -2 266.66 -0.94Q264.04 0.12 260.96 0.12M260.96 -0.64L260.96 -0.64Q263.84 -0.64 266.32 -1.64Q268.8 -2.64 270.64 -4.46Q272.48 -6.28 273.5 -8.7Q274.52 -11.12 274.52 -14L274.52 -14Q274.52 -16.88 273.5 -19.3Q272.48 -21.72 270.64 -23.54Q268.8 -25.36 266.32 -26.36Q263.84 -27.36 260.96 -27.36L260.96 -27.36Q258.08 -27.36 255.6 -26.36Q253.12 -25.36 251.28 -23.54Q249.44 -21.72 248.42 -19.3Q247.4 -16.88 247.4 -14L247.4 -14Q247.4 -11.12 248.42 -8.7Q249.44 -6.28 251.28 -4.46Q253.12 -2.64 255.6 -1.64Q258.08 -0.64 260.96 -0.64 M300.8 0.12L300.8 0.12Q298.68 0.12 296.82 -0.94Q294.96 -2 293.84 -3.84L293.84 -3.84L294.4 -4.32Q295.56 -2.56 297.22 -1.6Q298.88 -0.64 300.84 -0.64L300.84 -0.64Q306.88 -0.64 306.88 -7.84L306.88 -7.84L306.88 -27.24L296.4 -27.24L296.4 -28L307.68 -28L307.68 -7.76Q307.68 -3.84 305.96 -1.86Q304.24 0.12 300.8 0.12 M334.88 0L334.08 0L334.08 -28L334.88 -28L334.88 0M334.48 -31.64L334.48 -31.64Q334.08 -31.64 333.76 -31.96Q333.44 -32.28 333.44 -32.68L333.44 -32.68Q333.44 -33.12 333.76 -33.42Q334.08 -33.72 334.48 -33.72L334.48 -33.72Q334.92 -33.72 335.22 -33.42Q335.52 -33.12 335.52 -32.68L335.52 -32.68Q335.52 -32.28 335.22 -31.96Q334.92 -31.64 334.48 -31.64" fill="#7E9E80" transform="translate(436.68 349.50)"/></svg>