<svg width="400" height="400" viewBox="0 0 400 400" xmlns="http://www.w3.org/2000/svg"><g transform="translate(40 40) scale(1.25)">
    <circle cx="128" cy="128" r="96" stroke="#2B5233" stroke-width="7" fill="none"/>
    <path d="M128 120 C102 108 102 72 128 50 C154 72 154 108 128 120 Z" transform="rotate(-52 128 120)" fill="#92B594"/>
    <path d="M128 120 C102 108 102 72 128 50 C154 72 154 108 128 120 Z" transform="rotate(52 128 120)" fill="#7A9E7C"/>
    <path d="M128 120 L93 80" stroke="#2B5233" stroke-width="2.4" stroke-linecap="round" opacity="0.35"/>
    <path d="M128 120 L163 80" stroke="#2B5233" stroke-width="2.4" stroke-linecap="round" opacity="0.3"/>
    <path d="M105 182 C92 175 92 153 105 140 C118 153 118 175 105 182 Z" transform="rotate(-40 105 182)" fill="#AFC6B0"/>
    <path d="M151 182 C138 175 138 153 151 140 C164 153 164 175 151 182 Z" transform="rotate(40 151 182)" fill="#AFC6B0"/>
    <path d="M128 184 C112 176 112 148 128 130 C144 148 144 176 128 184 Z" fill="#92B594"/>
    <circle cx="128" cy="110" r="12" fill="#2B5233"/>
    <path d="M128 126 C118 136 118 154 128 168 C138 154 138 136 128 126 Z" fill="#2B5233"/>
    <path d="M126 130 C112 122 102 112 100 100" stroke="#2B5233" stroke-width="11" stroke-linecap="round" fill="none"/>
    <path d="M130 130 C144 122 154 112 156 100" stroke="#2B5233" stroke-width="11" stroke-linecap="round" fill="none"/></g></svg>