<svg width="870" height="798" viewBox="0 0 870 798" xmlns="http://www.w3.org/2000/svg"><g transform="translate(274.8946666666667 90) scale(1.6)">
    <path d="M0 0 C-13 -9 -13 -33 0 -46 C13 -33 13 -9 0 0 Z" fill="#92B594" transform="translate(86 116) rotate(-28) scale(1.5)"/>
    <path d="M0 0 C-13 -9 -13 -33 0 -46 C13 -33 13 -9 0 0 Z" fill="#7A9E7C" transform="translate(114 116) rotate(28) scale(1.5)"/>
    <circle cx="100" cy="78" r="11" fill="#F1EAD9"/>
    <path d="M100 92 C92 104 92 132 100 150 C108 132 108 104 100 92 Z" fill="#F1EAD9"/>
    <path d="M99 100 C88 96 80 90 78 82" stroke="#F1EAD9" stroke-width="7" stroke-linecap="round" fill="none"/>
    <path d="M101 100 C112 96 120 90 122 82" stroke="#F1EAD9" stroke-width="7" stroke-linecap="round" fill="none"/></g><path d="M61.49 2.02Q45.86 2.02 33.68 -5.29Q21.5 -12.6 14.87 -25.12Q8.23 -37.63 8.23 -52.42L8.23 -52.42Q8.23 -69.72 16.97 -82.07Q25.7 -94.42 39.4 -100.63Q53.09 -106.85 67.37 -106.85L67.37 -106.85Q83.33 -106.85 95.42 -99.37Q107.52 -91.9 113.99 -79.63Q120.46 -67.37 120.46 -53.59L120.46 -53.59Q120.46 -38.3 112.39 -25.54Q104.33 -12.77 90.8 -5.38Q77.28 2.02 61.49 2.02L61.49 2.02M67.03 -2.18Q76.44 -2.18 83.92 -7.64Q91.39 -13.1 95.59 -23.6Q99.79 -34.1 99.79 -48.72L99.79 -48.72Q99.79 -64.18 95.09 -76.36Q90.38 -88.54 81.48 -95.42Q72.58 -102.31 60.65 -102.31L60.65 -102.31Q45.36 -102.31 37.13 -90.8Q28.9 -79.3 28.9 -58.63L28.9 -58.63Q28.9 -42.34 33.85 -29.48Q38.81 -16.63 47.46 -9.41Q56.11 -2.18 67.03 -2.18L67.03 -2.18M50.74 -118.1Q46.37 -118.1 43.93 -120.54Q41.5 -122.98 41.5 -127.34L41.5 -127.34Q41.5 -131.38 44.02 -133.73Q46.54 -136.08 50.74 -136.08L50.74 -136.08Q54.94 -136.08 57.2 -133.73Q59.47 -131.38 59.47 -127.34L59.47 -127.34Q59.47 -122.98 57.2 -120.54Q54.94 -118.1 50.74 -118.1L50.74 -118.1M79.97 -118.1Q75.6 -118.1 73.25 -120.54Q70.9 -122.98 70.9 -127.34L70.9 -127.34Q70.9 -131.38 73.33 -133.64Q75.77 -135.91 79.97 -135.91L79.97 -135.91Q84.17 -135.91 86.44 -133.64Q88.7 -131.38 88.7 -127.34L88.7 -127.34Q88.7 -122.98 86.44 -120.54Q84.17 -118.1 79.97 -118.1L79.97 -118.1 M171.7 -61.15Q172.37 -62.33 170.86 -62.33L170.86 -62.33Q157.08 -62.33 148.01 -57.88Q138.94 -53.42 135.91 -44.52L135.91 -44.52Q135.91 -44.35 135.24 -44.35L135.24 -44.35Q133.9 -44.35 134.06 -45.02L134.06 -45.02L141.12 -71.4Q141.12 -71.57 141.79 -71.57L141.79 -71.57Q143.14 -71.57 142.97 -70.9L142.97 -70.9Q142.63 -69.55 142.63 -68.88L142.63 -68.88Q142.63 -66.53 144.65 -65.69Q146.66 -64.85 151.37 -64.85L151.37 -64.85L190.01 -64.85Q190.68 -64.85 191.18 -64.18Q191.69 -63.5 191.35 -62.83L191.35 -62.83L153.05 -4.2Q152.54 -3.02 153.89 -3.02L153.89 -3.02Q170.35 -3.02 179.26 -7.73Q188.16 -12.43 190.34 -22.18L190.34 -22.18Q190.51 -22.68 191.44 -22.68Q192.36 -22.68 192.36 -22.18L192.36 -22.18L192.02 -1.85Q192.02 -1.18 191.52 -0.59Q191.02 0 190.34 0L190.34 0L135.41 0Q134.74 0 134.32 -0.67Q133.9 -1.34 134.23 -2.02L134.23 -2.02L171.7 -61.15  M296.18 -88.2Q296.18 -95.59 292.74 -99.79Q289.3 -103.99 283.75 -103.99L283.75 -103.99Q279.05 -103.99 277.03 -100.97Q275.02 -97.94 275.02 -91.9L275.02 -91.9Q275.02 -78.79 284.26 -63.5L284.26 -63.5Q289.97 -69.05 293.08 -75.01Q296.18 -80.98 296.18 -88.2L296.18 -88.2M246.96 -22.01Q246.96 -30.07 252.5 -36.46Q258.05 -42.84 269.3 -51.24L269.3 -51.24Q265.94 -55.78 264.1 -59.3L264.1 -59.3Q261.74 -64.01 260.48 -68.21Q259.22 -72.41 259.22 -77.45L259.22 -77.45Q259.22 -91.06 267.88 -99.79Q276.53 -108.53 291.48 -108.53L291.48 -108.53Q301.9 -108.53 307.94 -104.08Q313.99 -99.62 313.99 -91.73L313.99 -91.73Q313.99 -85.18 310.21 -79.72Q306.43 -74.26 301.56 -70.56Q296.69 -66.86 286.44 -59.98L286.44 -59.98Q298.37 -42.17 320.21 -24.7L320.21 -24.7Q321.72 -30.58 321.72 -37.97L321.72 -37.97Q321.72 -47.71 318.53 -52.16Q315.34 -56.62 308.11 -56.62L308.11 -56.62Q307.78 -56.62 307.69 -57.62Q307.61 -58.63 308.11 -58.63L308.11 -58.63L348.1 -58.8Q348.6 -58.8 348.6 -57.79Q348.6 -56.78 348.1 -56.78L348.1 -56.78Q343.06 -56.78 340.62 -55.69Q338.18 -54.6 336.92 -52.08Q335.66 -49.56 334.15 -44.02L334.15 -44.02Q332.14 -36.96 330.12 -31.58Q328.1 -26.21 325.08 -21L325.08 -21Q336.17 -12.77 344.57 -8.06Q352.97 -3.36 357.84 -2.02L357.84 -2.02Q358.51 -1.85 358.43 -0.92Q358.34 0 357.84 0L357.84 0L330.29 0Q325.58 0 314.16 -8.23L314.16 -8.23Q301.56 2.02 282.07 2.02L282.07 2.02Q270.48 2.02 262.58 -1.34Q254.69 -4.7 250.82 -10.25Q246.96 -15.79 246.96 -22.01L246.96 -22.01M263.93 -31.58Q263.93 -25.03 267.71 -19.24Q271.49 -13.44 278.54 -9.83Q285.6 -6.22 295.01 -6.22L295.01 -6.22Q304.92 -6.22 311.14 -10.58L311.14 -10.58L303.91 -16.13Q283.92 -32.09 271.49 -48.22L271.49 -48.22Q263.93 -40.32 263.93 -31.58L263.93 -31.58  M424.87 -88.03Q424.87 -81.98 427.98 -77.28Q431.09 -72.58 435.62 -69.05Q440.16 -65.52 447.89 -60.48L447.89 -60.48Q456.29 -55.1 461.33 -51.07Q466.37 -47.04 469.9 -41.24Q473.42 -35.45 473.42 -27.89L473.42 -27.89Q473.42 -19.15 468.72 -12.35Q464.02 -5.54 455.7 -1.76Q447.38 2.02 437.14 2.02L437.14 2.02Q429.74 2.02 421.43 -0.08Q413.11 -2.18 410.26 -4.7L410.26 -4.7Q409.42 -5.38 409 -5.96Q408.58 -6.55 408.58 -7.9L408.58 -7.9L408.07 -34.61L408.07 -34.78Q408.07 -35.45 408.91 -35.53Q409.75 -35.62 409.92 -34.94L409.92 -34.94Q414.96 -24.7 418.74 -18.31Q422.52 -11.93 428.32 -7.06Q434.11 -2.18 441.5 -2.18L441.5 -2.18Q448.22 -2.18 452.59 -5.8Q456.96 -9.41 456.96 -18.14L456.96 -18.14Q456.96 -25.54 453.68 -31.08Q450.41 -36.62 445.7 -40.49Q441 -44.35 432.77 -49.73L432.77 -49.73Q424.7 -54.94 420.25 -58.63Q415.8 -62.33 412.61 -67.54Q409.42 -72.74 409.42 -79.8L409.42 -79.8Q409.42 -88.7 414.54 -94.84Q419.66 -100.97 427.73 -103.91Q435.79 -106.85 444.7 -106.85L444.7 -106.85Q450.58 -106.85 456.62 -105.76Q462.67 -104.66 466.37 -103.15L466.37 -103.15Q467.88 -102.48 468.38 -101.72Q468.89 -100.97 468.89 -99.79L468.89 -99.79L468.89 -75.1Q468.89 -74.59 468.05 -74.34Q467.21 -74.09 467.04 -74.59L467.04 -74.59L465.7 -77.78Q461.5 -88.37 455.87 -95.76Q450.24 -103.15 440.16 -103.15L440.16 -103.15Q433.44 -103.15 429.16 -99.29Q424.87 -95.42 424.87 -88.03L424.87 -88.03 M535.75 1.01Q535.08 1.34 534.07 1.34L534.07 1.34Q531.38 1.34 528.95 -1.43Q526.51 -4.2 525.5 -9.24L525.5 -9.24L518.28 -4.2Q514.42 -1.34 511.06 -0.08Q507.7 1.18 503.5 1.18L503.5 1.18Q496.27 1.18 492.58 -2.02Q488.88 -5.21 488.88 -10.92L488.88 -10.92Q488.88 -15.46 491.06 -18.23Q493.25 -21 496.52 -22.6Q499.8 -24.19 505.68 -26.21L505.68 -26.21L509.88 -27.72L525 -33.26L525 -42.84Q525 -53.59 523.24 -58.46Q521.47 -63.34 517.27 -63.34L517.27 -63.34Q508.37 -63.34 507.19 -49.56L507.19 -49.56Q506.69 -44.52 504.25 -42.34Q501.82 -40.15 497.45 -40.15L497.45 -40.15Q493.25 -40.15 491.32 -41.92Q489.38 -43.68 489.38 -46.54L489.38 -46.54Q489.38 -51.58 495.26 -56.2Q501.14 -60.82 509.46 -63.67Q517.78 -66.53 524.16 -66.53L524.16 -66.53Q531.55 -66.53 536.17 -61.91Q540.79 -57.29 540.79 -47.88L540.79 -47.88L540.79 -18.14Q540.79 -13.27 542.56 -10.58Q544.32 -7.9 547.51 -7.9L547.51 -7.9Q549.86 -7.9 552.38 -9.07L552.38 -9.07L552.55 -9.07Q553.22 -9.07 553.48 -8.32Q553.73 -7.56 553.06 -7.22L553.06 -7.22L535.75 1.01M507.36 -16.3Q507.36 -12.26 509.96 -10Q512.57 -7.73 515.93 -7.73L515.93 -7.73Q518.62 -7.73 521.47 -9.58L521.47 -9.58L525.17 -12.1Q525 -12.94 525 -14.28L525 -14.28L525 -30.41L517.78 -27.05Q515.76 -26.21 513.41 -25.12Q511.06 -24.02 509.21 -21.84Q507.36 -19.66 507.36 -16.3L507.36 -16.3 M625.97 -64.85Q626.3 -64.85 626.3 -63.84Q626.3 -62.83 625.97 -62.83L625.97 -62.83Q620.59 -62.83 616.64 -58.21Q612.7 -53.59 609.5 -44.86L609.5 -44.86L590.86 4.7Q581.95 28.22 573.8 37.72Q565.66 47.21 555.74 47.21L555.74 47.21Q550.7 47.21 548.02 45.11Q545.33 43.01 545.33 38.98L545.33 38.98Q545.33 35.11 547.68 33.1Q550.03 31.08 553.39 31.08L553.39 31.08Q555.24 31.08 556.5 31.58Q557.76 32.09 559.61 33.26L559.61 33.26Q562.8 35.45 565.66 35.45L565.66 35.45Q569.52 35.45 572.63 32.51Q575.74 29.57 579.1 22.76Q582.46 15.96 587.16 3.36L587.16 3.36L560.28 -50.9Q556.58 -58.13 554.48 -60.48Q552.38 -62.83 549.36 -62.83L549.36 -62.83Q548.86 -62.83 548.86 -63.84Q548.86 -64.85 549.36 -64.85L549.36 -64.85L563.64 -64.51L575.23 -64.68Q577.92 -64.85 582.46 -64.85L582.46 -64.85Q582.96 -64.85 582.96 -63.84Q582.96 -62.83 582.46 -62.83L582.46 -62.83Q578.09 -62.83 576.07 -62.08Q574.06 -61.32 574.06 -59.64L574.06 -59.64Q574.06 -58.3 575.06 -56.28L575.06 -56.28L594.89 -15.79L604.97 -45.02Q606.48 -49.39 606.48 -52.92L606.48 -52.92Q606.48 -57.62 603.79 -60.23Q601.1 -62.83 596.06 -62.83L596.06 -62.83Q595.73 -62.83 595.73 -63.84Q595.73 -64.85 596.06 -64.85L596.06 -64.85Q600.6 -64.85 602.95 -64.68L602.95 -64.68L613.03 -64.51L619.75 -64.68Q621.77 -64.85 625.97 -64.85L625.97 -64.85 M663.1 2.02Q652.51 2.02 644.78 -2.44Q637.06 -6.89 633.02 -14.36Q628.99 -21.84 628.99 -30.58L628.99 -30.58Q628.99 -40.32 633.86 -48.55Q638.74 -56.78 647.39 -61.57Q656.04 -66.36 666.96 -66.36L666.96 -66.36Q677.38 -66.36 683.09 -61.66Q688.8 -56.95 688.8 -47.04L688.8 -47.04Q688.8 -41.83 686.95 -41.83L686.95 -41.83L646.13 -41.66Q645.96 -40.32 645.96 -37.8L645.96 -37.8Q645.96 -23.02 652.76 -14.62Q659.57 -6.22 672.34 -6.22L672.34 -6.22Q676.87 -6.22 680.06 -7.31Q683.26 -8.4 688.46 -10.92L688.46 -10.92L688.8 -11.09Q689.14 -11.09 689.56 -10.42Q689.98 -9.74 689.64 -9.41L689.64 -9.41Q683.42 -3.36 677.04 -0.67Q670.66 2.02 663.1 2.02L663.1 2.02M646.46 -45.02L670.82 -45.36Q670.49 -63 660.58 -63L660.58 -63Q655.03 -63 651.34 -58.21Q647.64 -53.42 646.46 -45.02L646.46 -45.02" fill="#F1EAD9" transform="translate(90.00 590.08)"/><path d="M5.38 0.28L5.38 0.28Q4.92 0.28 4.67 0Q4.42 -0.28 4.42 -0.74L4.42 -0.74L4.42 -31.42Q4.42 -31.92 4.69 -32.18Q4.97 -32.43 5.43 -32.43L5.43 -32.43L16.15 -32.43Q21.25 -32.43 23.97 -29.99Q26.68 -27.55 26.68 -23.05L26.68 -23.05Q26.68 -18.54 23.97 -16.1Q21.25 -13.66 16.15 -13.66L16.15 -13.66L6.35 -13.66L6.35 -0.74Q6.35 -0.28 6.12 0Q5.89 0.28 5.38 0.28M6.35 -30.64L6.35 -15.46L16.1 -15.46Q20.38 -15.46 22.52 -17.39Q24.66 -19.32 24.66 -23.05L24.66 -23.05Q24.66 -26.77 22.52 -28.7Q20.38 -30.64 16.1 -30.64L16.1 -30.64L6.35 -30.64 M60.6 0.37L60.6 0.37Q58.3 0.37 56.23 -0.05Q54.16 -0.46 52.39 -1.24Q50.61 -2.02 49.19 -3.17L49.19 -3.17Q48.87 -3.45 48.75 -3.77Q48.64 -4.09 48.75 -4.39Q48.87 -4.69 49.1 -4.88Q49.33 -5.06 49.65 -5.06Q49.97 -5.06 50.29 -4.78L50.29 -4.78Q52.45 -3.08 54.87 -2.3Q57.28 -1.52 60.6 -1.52L60.6 -1.52Q65.2 -1.52 67.52 -3.36Q69.84 -5.2 69.84 -8.23L69.84 -8.23Q69.84 -10.72 68.14 -12.12Q66.44 -13.52 62.57 -14.31L62.57 -14.31L58.02 -15.23Q53.7 -16.1 51.58 -18.12Q49.46 -20.15 49.46 -23.6L49.46 -23.6Q49.46 -25.67 50.27 -27.35Q51.07 -29.03 52.55 -30.24Q54.02 -31.46 56.04 -32.13Q58.07 -32.8 60.5 -32.8L60.5 -32.8Q63.54 -32.8 66.07 -31.9Q68.6 -31 70.67 -29.12L70.67 -29.12Q70.99 -28.84 71.08 -28.5Q71.18 -28.15 71.06 -27.85Q70.95 -27.55 70.74 -27.39Q70.53 -27.23 70.21 -27.23Q69.89 -27.23 69.57 -27.55L69.57 -27.55Q67.59 -29.3 65.38 -30.11Q63.17 -30.91 60.5 -30.91L60.5 -30.91Q57.79 -30.91 55.77 -30.01Q53.74 -29.12 52.61 -27.46Q51.49 -25.81 51.49 -23.6L51.49 -23.6Q51.49 -20.93 53.05 -19.39Q54.62 -17.85 58.11 -17.16L58.11 -17.16L62.67 -16.24Q67.36 -15.27 69.61 -13.41Q71.87 -11.55 71.87 -8.28L71.87 -8.28Q71.87 -6.35 71.08 -4.76Q70.3 -3.17 68.85 -2.02Q67.4 -0.87 65.31 -0.25Q63.22 0.37 60.6 0.37 M97.32 0.28L97.32 0.28Q96.86 0.28 96.6 0Q96.35 -0.28 96.35 -0.74L96.35 -0.74L96.35 -31.69Q96.35 -32.2 96.6 -32.45Q96.86 -32.71 97.32 -32.71L97.32 -32.71Q97.78 -32.71 98.03 -32.45Q98.28 -32.2 98.28 -31.69L98.28 -31.69L98.28 -0.74Q98.28 -0.28 98.05 0Q97.82 0.28 97.32 0.28M97.32 -37.49L97.32 -37.49Q96.58 -37.49 96.17 -37.93Q95.75 -38.36 95.75 -39.1L95.75 -39.1Q95.75 -39.88 96.17 -40.27Q96.58 -40.66 97.32 -40.66L97.32 -40.66Q98.1 -40.66 98.49 -40.27Q98.88 -39.88 98.88 -39.1L98.88 -39.1Q98.88 -38.36 98.49 -37.93Q98.1 -37.49 97.32 -37.49 M126.08 0.28L126.08 0.28Q125.62 0.28 125.37 0Q125.12 -0.28 125.12 -0.74L125.12 -0.74L125.12 -31.69Q125.12 -32.2 125.37 -32.45Q125.62 -32.71 126.08 -32.71L126.08 -32.71Q126.54 -32.71 126.79 -32.45Q127.05 -32.2 127.05 -31.69L127.05 -31.69L127.05 -17.34L127.14 -17.34L143.65 -32.02Q144.11 -32.38 144.48 -32.54Q144.85 -32.71 145.22 -32.71L145.22 -32.71Q145.68 -32.71 145.91 -32.52Q146.14 -32.34 146.09 -32.04Q146.05 -31.74 145.68 -31.42L145.68 -31.42L127.97 -15.73L128.06 -17.2L146.51 -1.29Q146.97 -0.92 147.01 -0.55Q147.06 -0.18 146.8 0.05Q146.55 0.28 146.09 0.28L146.09 0.28Q145.72 0.28 145.4 0.12Q145.08 -0.05 144.71 -0.37L144.71 -0.37L127.14 -15.55L127.05 -15.55L127.05 -0.74Q127.05 -0.28 126.82 0Q126.59 0.28 126.08 0.28 M183.09 0.37L183.09 0.37Q178.72 0.37 175.55 -1.66Q172.37 -3.68 170.65 -7.41Q168.92 -11.13 168.92 -16.24L168.92 -16.24Q168.92 -20.1 169.89 -23.16Q170.85 -26.22 172.69 -28.36Q174.53 -30.5 177.16 -31.65Q179.78 -32.8 183.09 -32.8L183.09 -32.8Q187.51 -32.8 190.7 -30.8Q193.9 -28.8 195.6 -25.09Q197.3 -21.39 197.3 -16.28L197.3 -16.28Q197.3 -12.42 196.31 -9.34Q195.33 -6.26 193.49 -4.09Q191.65 -1.93 189.02 -0.78Q186.4 0.37 183.09 0.37M183.09 -1.52L183.09 -1.52Q186.95 -1.52 189.67 -3.24Q192.38 -4.97 193.81 -8.26Q195.23 -11.55 195.23 -16.24L195.23 -16.24Q195.23 -23.23 192.08 -27.07Q188.93 -30.91 183.09 -30.91L183.09 -30.91Q179.27 -30.91 176.56 -29.19Q173.84 -27.46 172.42 -24.17Q170.99 -20.88 170.99 -16.24L170.99 -16.24Q170.99 -9.29 174.17 -5.4Q177.34 -1.52 183.09 -1.52 M241.29 0L223.81 0Q223.35 0 223.08 -0.28Q222.8 -0.55 222.8 -1.01L222.8 -1.01L222.8 -31.69Q222.8 -32.2 223.05 -32.45Q223.31 -32.71 223.77 -32.71L223.77 -32.71Q224.23 -32.71 224.48 -32.45Q224.73 -32.2 224.73 -31.69L224.73 -31.69L224.73 -1.79L241.29 -1.79Q241.8 -1.79 242.05 -1.56Q242.31 -1.33 242.31 -0.92L242.31 -0.92Q242.31 -0.46 242.05 -0.23Q241.8 0 241.29 0L241.29 0 M277.88 0.37L277.88 0.37Q273.51 0.37 270.33 -1.66Q267.16 -3.68 265.44 -7.41Q263.71 -11.13 263.71 -16.24L263.71 -16.24Q263.71 -20.1 264.68 -23.16Q265.64 -26.22 267.48 -28.36Q269.32 -30.5 271.94 -31.65Q274.57 -32.8 277.88 -32.8L277.88 -32.8Q282.29 -32.8 285.49 -30.8Q288.69 -28.8 290.39 -25.09Q292.09 -21.39 292.09 -16.28L292.09 -16.28Q292.09 -12.42 291.1 -9.34Q290.11 -6.26 288.27 -4.09Q286.43 -1.93 283.81 -0.78Q281.19 0.37 277.88 0.37M277.88 -1.52L277.88 -1.52Q281.74 -1.52 284.46 -3.24Q287.17 -4.97 288.6 -8.26Q290.02 -11.55 290.02 -16.24L290.02 -16.24Q290.02 -23.23 286.87 -27.07Q283.72 -30.91 277.88 -30.91L277.88 -30.91Q274.06 -30.91 271.35 -29.19Q268.63 -27.46 267.21 -24.17Q265.78 -20.88 265.78 -16.24L265.78 -16.24Q265.78 -9.29 268.95 -5.4Q272.13 -1.52 277.88 -1.52 M315.2 0.09L313.73 0.23Q313.22 0.28 312.94 -0.02Q312.67 -0.32 312.67 -0.69L312.67 -0.69Q312.67 -0.97 312.88 -1.22Q313.08 -1.47 313.54 -1.52L313.54 -1.52L315.06 -1.66Q317.64 -1.89 319.06 -3.63Q320.49 -5.38 320.49 -8.23L320.49 -8.23L320.49 -31.69Q320.49 -32.2 320.74 -32.45Q320.99 -32.71 321.45 -32.71L321.45 -32.71Q321.91 -32.71 322.17 -32.45Q322.42 -32.2 322.42 -31.69L322.42 -31.69L322.42 -8.14Q322.42 -5.7 321.59 -3.93Q320.76 -2.16 319.15 -1.15Q317.54 -0.14 315.2 0.09L315.2 0.09 M350.22 0.28L350.22 0.28Q349.76 0.28 349.5 0Q349.25 -0.28 349.25 -0.74L349.25 -0.74L349.25 -31.69Q349.25 -32.2 349.5 -32.45Q349.76 -32.71 350.22 -32.71L350.22 -32.71Q350.68 -32.71 350.93 -32.45Q351.18 -32.2 351.18 -31.69L351.18 -31.69L351.18 -0.74Q351.18 -0.28 350.95 0Q350.72 0.28 350.22 0.28M350.22 -37.49L350.22 -37.49Q349.48 -37.49 349.07 -37.93Q348.65 -38.36 348.65 -39.1L348.65 -39.1Q348.65 -39.88 349.07 -40.27Q349.48 -40.66 350.22 -40.66L350.22 -40.66Q351 -40.66 351.39 -40.27Q351.78 -39.88 351.78 -39.1L351.78 -39.1Q351.78 -38.36 351.39 -37.93Q351 -37.49 350.22 -37.49" fill="#AFC6B0" transform="translate(256.80 707.95)"/></svg>