<svg width="1125" height="460" viewBox="0 0 1125 460" xmlns="http://www.w3.org/2000/svg"><g transform="translate(90 90) scale(1.09375)">
    <circle cx="128" cy="128" r="96" stroke="#F1EAD9" stroke-width="7" fill="none"/>
    <path d="M128 120 C102 108 102 72 128 50 C154 72 154 108 128 120 Z" transform="rotate(-52 128 120)" fill="#92B594"/>
    <path d="M128 120 C102 108 102 72 128 50 C154 72 154 108 128 120 Z" transform="rotate(52 128 120)" fill="#7A9E7C"/>
    <path d="M128 120 L93 80" stroke="#F1EAD9" stroke-width="2.4" stroke-linecap="round" opacity="0.35"/>
    <path d="M128 120 L163 80" stroke="#F1EAD9" stroke-width="2.4" stroke-linecap="round" opacity="0.3"/>
    <path d="M105 182 C92 175 92 153 105 140 C118 153 118 175 105 182 Z" transform="rotate(-40 105 182)" fill="#AFC6B0"/>
    <path d="M151 182 C138 175 138 153 151 140 C164 153 164 175 151 182 Z" transform="rotate(40 151 182)" fill="#AFC6B0"/>
    <path d="M128 184 C112 176 112 148 128 130 C144 148 144 176 128 184 Z" fill="#92B594"/>
    <circle cx="128" cy="110" r="12" fill="#F1EAD9"/>
    <path d="M128 126 C118 136 118 154 128 168 C138 154 138 136 128 126 Z" fill="#F1EAD9"/>
    <path d="M126 130 C112 122 102 112 100 100" stroke="#F1EAD9" stroke-width="11" stroke-linecap="round" fill="none"/>
    <path d="M130 130 C144 122 154 112 156 100" stroke="#F1EAD9" stroke-width="11" stroke-linecap="round" fill="none"/></g><path d="M54.9 1.8Q40.95 1.8 30.08 -4.72Q19.2 -11.25 13.28 -22.42Q7.35 -33.6 7.35 -46.8L7.35 -46.8Q7.35 -62.25 15.15 -73.27Q22.95 -84.3 35.17 -89.85Q47.4 -95.4 60.15 -95.4L60.15 -95.4Q74.4 -95.4 85.2 -88.72Q96 -82.05 101.78 -71.1Q107.55 -60.15 107.55 -47.85L107.55 -47.85Q107.55 -34.2 100.35 -22.8Q93.15 -11.4 81.08 -4.8Q69 1.8 54.9 1.8L54.9 1.8M59.85 -1.95Q68.25 -1.95 74.93 -6.82Q81.6 -11.7 85.35 -21.07Q89.1 -30.45 89.1 -43.5L89.1 -43.5Q89.1 -57.3 84.9 -68.17Q80.7 -79.05 72.75 -85.2Q64.8 -91.35 54.15 -91.35L54.15 -91.35Q40.5 -91.35 33.15 -81.07Q25.8 -70.8 25.8 -52.35L25.8 -52.35Q25.8 -37.8 30.23 -26.32Q34.65 -14.85 42.38 -8.4Q50.1 -1.95 59.85 -1.95L59.85 -1.95M45.3 -105.45Q41.4 -105.45 39.23 -107.62Q37.05 -109.8 37.05 -113.7L37.05 -113.7Q37.05 -117.3 39.3 -119.4Q41.55 -121.5 45.3 -121.5L45.3 -121.5Q49.05 -121.5 51.08 -119.4Q53.1 -117.3 53.1 -113.7L53.1 -113.7Q53.1 -109.8 51.08 -107.62Q49.05 -105.45 45.3 -105.45L45.3 -105.45M71.4 -105.45Q67.5 -105.45 65.4 -107.62Q63.3 -109.8 63.3 -113.7L63.3 -113.7Q63.3 -117.3 65.47 -119.32Q67.65 -121.35 71.4 -121.35L71.4 -121.35Q75.15 -121.35 77.18 -119.32Q79.2 -117.3 79.2 -113.7L79.2 -113.7Q79.2 -109.8 77.18 -107.62Q75.15 -105.45 71.4 -105.45L71.4 -105.45M153.3 -54.6Q153.9 -55.65 152.55 -55.65L152.55 -55.65Q140.25 -55.65 132.15 -51.67Q124.05 -47.7 121.35 -39.75L121.35 -39.75Q121.35 -39.6 120.75 -39.6L120.75 -39.6Q119.55 -39.6 119.7 -40.2L119.7 -40.2L126 -63.75Q126 -63.9 126.6 -63.9L126.6 -63.9Q127.8 -63.9 127.65 -63.3L127.65 -63.3Q127.35 -62.1 127.35 -61.5L127.35 -61.5Q127.35 -59.4 129.15 -58.65Q130.95 -57.9 135.15 -57.9L135.15 -57.9L169.65 -57.9Q170.25 -57.9 170.7 -57.3Q171.15 -56.7 170.85 -56.1L170.85 -56.1L136.65 -3.75Q136.2 -2.7 137.4 -2.7L137.4 -2.7Q152.1 -2.7 160.05 -6.9Q168 -11.1 169.95 -19.8L169.95 -19.8Q170.1 -20.25 170.93 -20.25Q171.75 -20.25 171.75 -19.8L171.75 -19.8L171.45 -1.65Q171.45 -1.05 171 -0.52Q170.55 0 169.95 0L169.95 0L120.9 0Q120.3 0 119.93 -0.6Q119.55 -1.2 119.85 -1.8L119.85 -1.8L153.3 -54.6M264.45 -78.75Q264.45 -85.35 261.38 -89.1Q258.3 -92.85 253.35 -92.85L253.35 -92.85Q249.15 -92.85 247.35 -90.15Q245.55 -87.45 245.55 -82.05L245.55 -82.05Q245.55 -70.35 253.8 -56.7L253.8 -56.7Q258.9 -61.65 261.67 -66.97Q264.45 -72.3 264.45 -78.75L264.45 -78.75M220.5 -19.65Q220.5 -26.85 225.45 -32.55Q230.4 -38.25 240.45 -45.75L240.45 -45.75Q237.45 -49.8 235.8 -52.95L235.8 -52.95Q233.7 -57.15 232.57 -60.9Q231.45 -64.65 231.45 -69.15L231.45 -69.15Q231.45 -81.3 239.18 -89.1Q246.9 -96.9 260.25 -96.9L260.25 -96.9Q269.55 -96.9 274.95 -92.92Q280.35 -88.95 280.35 -81.9L280.35 -81.9Q280.35 -76.05 276.97 -71.17Q273.6 -66.3 269.25 -63Q264.9 -59.7 255.75 -53.55L255.75 -53.55Q266.4 -37.65 285.9 -22.05L285.9 -22.05Q287.25 -27.3 287.25 -33.9L287.25 -33.9Q287.25 -42.6 284.4 -46.57Q281.55 -50.55 275.1 -50.55L275.1 -50.55Q274.8 -50.55 274.72 -51.45Q274.65 -52.35 275.1 -52.35L275.1 -52.35L310.8 -52.5Q311.25 -52.5 311.25 -51.6Q311.25 -50.7 310.8 -50.7L310.8 -50.7Q306.3 -50.7 304.13 -49.72Q301.95 -48.75 300.83 -46.5Q299.7 -44.25 298.35 -39.3L298.35 -39.3Q296.55 -33 294.75 -28.2Q292.95 -23.4 290.25 -18.75L290.25 -18.75Q300.15 -11.4 307.65 -7.2Q315.15 -3 319.5 -1.8L319.5 -1.8Q320.1 -1.65 320.02 -0.82Q319.95 0 319.5 0L319.5 0L294.9 0Q290.7 0 280.5 -7.35L280.5 -7.35Q269.25 1.8 251.85 1.8L251.85 1.8Q241.5 1.8 234.45 -1.2Q227.4 -4.2 223.95 -9.15Q220.5 -14.1 220.5 -19.65L220.5 -19.65M235.65 -28.2Q235.65 -22.35 239.02 -17.17Q242.4 -12 248.7 -8.77Q255 -5.55 263.4 -5.55L263.4 -5.55Q272.25 -5.55 277.8 -9.45L277.8 -9.45L271.35 -14.4Q253.5 -28.65 242.4 -43.05L242.4 -43.05Q235.65 -36 235.65 -28.2L235.65 -28.2M379.35 -78.6Q379.35 -73.2 382.13 -69Q384.9 -64.8 388.95 -61.65Q393 -58.5 399.9 -54L399.9 -54Q407.4 -49.2 411.9 -45.6Q416.4 -42 419.55 -36.82Q422.7 -31.65 422.7 -24.9L422.7 -24.9Q422.7 -17.1 418.5 -11.02Q414.3 -4.95 406.88 -1.57Q399.45 1.8 390.3 1.8L390.3 1.8Q383.7 1.8 376.28 -0.07Q368.85 -1.95 366.3 -4.2L366.3 -4.2Q365.55 -4.8 365.18 -5.32Q364.8 -5.85 364.8 -7.05L364.8 -7.05L364.35 -30.9L364.35 -31.05Q364.35 -31.65 365.1 -31.72Q365.85 -31.8 366 -31.2L366 -31.2Q370.5 -22.05 373.88 -16.35Q377.25 -10.65 382.43 -6.3Q387.6 -1.95 394.2 -1.95L394.2 -1.95Q400.2 -1.95 404.1 -5.17Q408 -8.4 408 -16.2L408 -16.2Q408 -22.8 405.08 -27.75Q402.15 -32.7 397.95 -36.15Q393.75 -39.6 386.4 -44.4L386.4 -44.4Q379.2 -49.05 375.23 -52.35Q371.25 -55.65 368.4 -60.3Q365.55 -64.95 365.55 -71.25L365.55 -71.25Q365.55 -79.2 370.13 -84.67Q374.7 -90.15 381.9 -92.77Q389.1 -95.4 397.05 -95.4L397.05 -95.4Q402.3 -95.4 407.7 -94.42Q413.1 -93.45 416.4 -92.1L416.4 -92.1Q417.75 -91.5 418.2 -90.82Q418.65 -90.15 418.65 -89.1L418.65 -89.1L418.65 -67.05Q418.65 -66.6 417.9 -66.37Q417.15 -66.15 417 -66.6L417 -66.6L415.8 -69.45Q412.05 -78.9 407.03 -85.5Q402 -92.1 393 -92.1L393 -92.1Q387 -92.1 383.18 -88.65Q379.35 -85.2 379.35 -78.6L379.35 -78.6M478.35 0.9Q477.75 1.2 476.85 1.2L476.85 1.2Q474.45 1.2 472.28 -1.27Q470.1 -3.75 469.2 -8.25L469.2 -8.25L462.75 -3.75Q459.3 -1.2 456.3 -0.07Q453.3 1.05 449.55 1.05L449.55 1.05Q443.1 1.05 439.8 -1.8Q436.5 -4.65 436.5 -9.75L436.5 -9.75Q436.5 -13.8 438.45 -16.27Q440.4 -18.75 443.33 -20.17Q446.25 -21.6 451.5 -23.4L451.5 -23.4L455.25 -24.75L468.75 -29.7L468.75 -38.25Q468.75 -47.85 467.18 -52.2Q465.6 -56.55 461.85 -56.55L461.85 -56.55Q453.9 -56.55 452.85 -44.25L452.85 -44.25Q452.4 -39.75 450.23 -37.8Q448.05 -35.85 444.15 -35.85L444.15 -35.85Q440.4 -35.85 438.68 -37.42Q436.95 -39 436.95 -41.55L436.95 -41.55Q436.95 -46.05 442.2 -50.17Q447.45 -54.3 454.88 -56.85Q462.3 -59.4 468 -59.4L468 -59.4Q474.6 -59.4 478.73 -55.27Q482.85 -51.15 482.85 -42.75L482.85 -42.75L482.85 -16.2Q482.85 -11.85 484.43 -9.45Q486 -7.05 488.85 -7.05L488.85 -7.05Q490.95 -7.05 493.2 -8.1L493.2 -8.1L493.35 -8.1Q493.95 -8.1 494.18 -7.42Q494.4 -6.75 493.8 -6.45L493.8 -6.45L478.35 0.9M453 -14.55Q453 -10.95 455.33 -8.92Q457.65 -6.9 460.65 -6.9L460.65 -6.9Q463.05 -6.9 465.6 -8.55L465.6 -8.55L468.9 -10.8Q468.75 -11.55 468.75 -12.75L468.75 -12.75L468.75 -27.15L462.3 -24.15Q460.5 -23.4 458.4 -22.42Q456.3 -21.45 454.65 -19.5Q453 -17.55 453 -14.55L453 -14.55M558.9 -57.9Q559.2 -57.9 559.2 -57Q559.2 -56.1 558.9 -56.1L558.9 -56.1Q554.1 -56.1 550.58 -51.97Q547.05 -47.85 544.2 -40.05L544.2 -40.05L527.55 4.2Q519.6 25.2 512.33 33.67Q505.05 42.15 496.2 42.15L496.2 42.15Q491.7 42.15 489.3 40.28Q486.9 38.4 486.9 34.8L486.9 34.8Q486.9 31.35 489 29.55Q491.1 27.75 494.1 27.75L494.1 27.75Q495.75 27.75 496.88 28.2Q498 28.65 499.65 29.7L499.65 29.7Q502.5 31.65 505.05 31.65L505.05 31.65Q508.5 31.65 511.28 29.03Q514.05 26.4 517.05 20.33Q520.05 14.25 524.25 3L524.25 3L500.25 -45.45Q496.95 -51.9 495.08 -54Q493.2 -56.1 490.5 -56.1L490.5 -56.1Q490.05 -56.1 490.05 -57Q490.05 -57.9 490.5 -57.9L490.5 -57.9L503.25 -57.6L513.6 -57.75Q516 -57.9 520.05 -57.9L520.05 -57.9Q520.5 -57.9 520.5 -57Q520.5 -56.1 520.05 -56.1L520.05 -56.1Q516.15 -56.1 514.35 -55.42Q512.55 -54.75 512.55 -53.25L512.55 -53.25Q512.55 -52.05 513.45 -50.25L513.45 -50.25L531.15 -14.1L540.15 -40.2Q541.5 -44.1 541.5 -47.25L541.5 -47.25Q541.5 -51.45 539.1 -53.77Q536.7 -56.1 532.2 -56.1L532.2 -56.1Q531.9 -56.1 531.9 -57Q531.9 -57.9 532.2 -57.9L532.2 -57.9Q536.25 -57.9 538.35 -57.75L538.35 -57.75L547.35 -57.6L553.35 -57.75Q555.15 -57.9 558.9 -57.9L558.9 -57.9M592.05 1.8Q582.6 1.8 575.7 -2.17Q568.8 -6.15 565.2 -12.82Q561.6 -19.5 561.6 -27.3L561.6 -27.3Q561.6 -36 565.95 -43.35Q570.3 -50.7 578.03 -54.97Q585.75 -59.25 595.5 -59.25L595.5 -59.25Q604.8 -59.25 609.9 -55.05Q615 -50.85 615 -42L615 -42Q615 -37.35 613.35 -37.35L613.35 -37.35L576.9 -37.2Q576.75 -36 576.75 -33.75L576.75 -33.75Q576.75 -20.55 582.82 -13.05Q588.9 -5.55 600.3 -5.55L600.3 -5.55Q604.35 -5.55 607.2 -6.52Q610.05 -7.5 614.7 -9.75L614.7 -9.75L615 -9.9Q615.3 -9.9 615.67 -9.3Q616.05 -8.7 615.75 -8.4L615.75 -8.4Q610.2 -3 604.5 -0.6Q598.8 1.8 592.05 1.8L592.05 1.8M577.2 -40.2L598.95 -40.5Q598.65 -56.25 589.8 -56.25L589.8 -56.25Q584.85 -56.25 581.55 -51.97Q578.25 -47.7 577.2 -40.2L577.2 -40.2" fill="#F1EAD9" transform="translate(418.65 239.83)"/><path d="M4.68 0.24L4.68 0.24Q4.28 0.24 4.06 0Q3.84 -0.24 3.84 -0.64L3.84 -0.64L3.84 -27.32Q3.84 -27.76 4.08 -27.98Q4.32 -28.2 4.72 -28.2L4.72 -28.2L14.04 -28.2Q18.48 -28.2 20.84 -26.08Q23.2 -23.96 23.2 -20.04L23.2 -20.04Q23.2 -16.12 20.84 -14Q18.48 -11.88 14.04 -11.88L14.04 -11.88L5.52 -11.88L5.52 -0.64Q5.52 -0.24 5.32 0Q5.12 0.24 4.68 0.24M5.52 -26.64L5.52 -13.44L14 -13.44Q17.72 -13.44 19.58 -15.12Q21.44 -16.8 21.44 -20.04L21.44 -20.04Q21.44 -23.28 19.58 -24.96Q17.72 -26.64 14 -26.64L14 -26.64L5.52 -26.64 M53.04 0.32L53.04 0.32Q51.04 0.32 49.24 -0.04Q47.44 -0.4 45.9 -1.08Q44.36 -1.76 43.12 -2.76L43.12 -2.76Q42.84 -3 42.74 -3.28Q42.64 -3.56 42.74 -3.82Q42.84 -4.08 43.04 -4.24Q43.24 -4.4 43.52 -4.4Q43.8 -4.4 44.08 -4.16L44.08 -4.16Q45.96 -2.68 48.06 -2Q50.16 -1.32 53.04 -1.32L53.04 -1.32Q57.04 -1.32 59.06 -2.92Q61.08 -4.52 61.08 -7.16L61.08 -7.16Q61.08 -9.32 59.6 -10.54Q58.12 -11.76 54.76 -12.44L54.76 -12.44L50.8 -13.24Q47.04 -14 45.2 -15.76Q43.36 -17.52 43.36 -20.52L43.36 -20.52Q43.36 -22.32 44.06 -23.78Q44.76 -25.24 46.04 -26.3Q47.32 -27.36 49.08 -27.94Q50.84 -28.52 52.96 -28.52L52.96 -28.52Q55.6 -28.52 57.8 -27.74Q60 -26.96 61.8 -25.32L61.8 -25.32Q62.08 -25.08 62.16 -24.78Q62.24 -24.48 62.14 -24.22Q62.04 -23.96 61.86 -23.82Q61.68 -23.68 61.4 -23.68Q61.12 -23.68 60.84 -23.96L60.84 -23.96Q59.12 -25.48 57.2 -26.18Q55.28 -26.88 52.96 -26.88L52.96 -26.88Q50.6 -26.88 48.84 -26.1Q47.08 -25.32 46.1 -23.88Q45.12 -22.44 45.12 -20.52L45.12 -20.52Q45.12 -18.2 46.48 -16.86Q47.84 -15.52 50.88 -14.92L50.88 -14.92L54.84 -14.12Q58.92 -13.28 60.88 -11.66Q62.84 -10.04 62.84 -7.2L62.84 -7.2Q62.84 -5.52 62.16 -4.14Q61.48 -2.76 60.22 -1.76Q58.96 -0.76 57.14 -0.22Q55.32 0.32 53.04 0.32 M85.32 0.24L85.32 0.24Q84.92 0.24 84.7 0Q84.48 -0.24 84.48 -0.64L84.48 -0.64L84.48 -27.56Q84.48 -28 84.7 -28.22Q84.92 -28.44 85.32 -28.44L85.32 -28.44Q85.72 -28.44 85.94 -28.22Q86.16 -28 86.16 -27.56L86.16 -27.56L86.16 -0.64Q86.16 -0.24 85.96 0Q85.76 0.24 85.32 0.24M85.32 -32.6L85.32 -32.6Q84.68 -32.6 84.32 -32.98Q83.96 -33.36 83.96 -34L83.96 -34Q83.96 -34.68 84.32 -35.02Q84.68 -35.36 85.32 -35.36L85.32 -35.36Q86 -35.36 86.34 -35.02Q86.68 -34.68 86.68 -34L86.68 -34Q86.68 -33.36 86.34 -32.98Q86 -32.6 85.32 -32.6 M110.68 0.24L110.68 0.24Q110.28 0.24 110.06 0Q109.84 -0.24 109.84 -0.64L109.84 -0.64L109.84 -27.56Q109.84 -28 110.06 -28.22Q110.28 -28.44 110.68 -28.44L110.68 -28.44Q111.08 -28.44 111.3 -28.22Q111.52 -28 111.52 -27.56L111.52 -27.56L111.52 -15.08L111.6 -15.08L125.96 -27.84Q126.36 -28.16 126.68 -28.3Q127 -28.44 127.32 -28.44L127.32 -28.44Q127.72 -28.44 127.92 -28.28Q128.12 -28.12 128.08 -27.86Q128.04 -27.6 127.72 -27.32L127.72 -27.32L112.32 -13.68L112.4 -14.96L128.44 -1.12Q128.84 -0.8 128.88 -0.48Q128.92 -0.16 128.7 0.04Q128.48 0.24 128.08 0.24L128.08 0.24Q127.76 0.24 127.48 0.1Q127.2 -0.04 126.88 -0.32L126.88 -0.32L111.6 -13.52L111.52 -13.52L111.52 -0.64Q111.52 -0.24 111.32 0Q111.12 0.24 110.68 0.24 M160.6 0.32L160.6 0.32Q156.8 0.32 154.04 -1.44Q151.28 -3.2 149.78 -6.44Q148.28 -9.68 148.28 -14.12L148.28 -14.12Q148.28 -17.48 149.12 -20.14Q149.96 -22.8 151.56 -24.66Q153.16 -26.52 155.44 -27.52Q157.72 -28.52 160.6 -28.52L160.6 -28.52Q164.44 -28.52 167.22 -26.78Q170 -25.04 171.48 -21.82Q172.96 -18.6 172.96 -14.16L172.96 -14.16Q172.96 -10.8 172.1 -8.12Q171.24 -5.44 169.64 -3.56Q168.04 -1.68 165.76 -0.68Q163.48 0.32 160.6 0.32M160.6 -1.32L160.6 -1.32Q163.96 -1.32 166.32 -2.82Q168.68 -4.32 169.92 -7.18Q171.16 -10.04 171.16 -14.12L171.16 -14.12Q171.16 -20.2 168.42 -23.54Q165.68 -26.88 160.6 -26.88L160.6 -26.88Q157.28 -26.88 154.92 -25.38Q152.56 -23.88 151.32 -21.02Q150.08 -18.16 150.08 -14.12L150.08 -14.12Q150.08 -8.08 152.84 -4.7Q155.6 -1.32 160.6 -1.32 M211.56 0L196.36 0Q195.96 0 195.72 -0.24Q195.48 -0.48 195.48 -0.88L195.48 -0.88L195.48 -27.56Q195.48 -28 195.7 -28.22Q195.92 -28.44 196.32 -28.44L196.32 -28.44Q196.72 -28.44 196.94 -28.22Q197.16 -28 197.16 -27.56L197.16 -27.56L197.16 -1.56L211.56 -1.56Q212 -1.56 212.22 -1.36Q212.44 -1.16 212.44 -0.8L212.44 -0.8Q212.44 -0.4 212.22 -0.2Q212 0 211.56 0L211.56 0 M243.72 0.32L243.72 0.32Q239.92 0.32 237.16 -1.44Q234.4 -3.2 232.9 -6.44Q231.4 -9.68 231.4 -14.12L231.4 -14.12Q231.4 -17.48 232.24 -20.14Q233.08 -22.8 234.68 -24.66Q236.28 -26.52 238.56 -27.52Q240.84 -28.52 243.72 -28.52L243.72 -28.52Q247.56 -28.52 250.34 -26.78Q253.12 -25.04 254.6 -21.82Q256.08 -18.6 256.08 -14.16L256.08 -14.16Q256.08 -10.8 255.22 -8.12Q254.36 -5.44 252.76 -3.56Q251.16 -1.68 248.88 -0.68Q246.6 0.32 243.72 0.32M243.72 -1.32L243.72 -1.32Q247.08 -1.32 249.44 -2.82Q251.8 -4.32 253.04 -7.18Q254.28 -10.04 254.28 -14.12L254.28 -14.12Q254.28 -20.2 251.54 -23.54Q248.8 -26.88 243.72 -26.88L243.72 -26.88Q240.4 -26.88 238.04 -25.38Q235.68 -23.88 234.44 -21.02Q233.2 -18.16 233.2 -14.12L233.2 -14.12Q233.2 -8.08 235.96 -4.7Q238.72 -1.32 243.72 -1.32 M276.52 0.08L275.24 0.2Q274.8 0.24 274.56 -0.02Q274.32 -0.28 274.32 -0.6L274.32 -0.6Q274.32 -0.84 274.5 -1.06Q274.68 -1.28 275.08 -1.32L275.08 -1.32L276.4 -1.44Q278.64 -1.64 279.88 -3.16Q281.12 -4.68 281.12 -7.16L281.12 -7.16L281.12 -27.56Q281.12 -28 281.34 -28.22Q281.56 -28.44 281.96 -28.44L281.96 -28.44Q282.36 -28.44 282.58 -28.22Q282.8 -28 282.8 -27.56L282.8 -27.56L282.8 -7.08Q282.8 -4.96 282.08 -3.42Q281.36 -1.88 279.96 -1Q278.56 -0.12 276.52 0.08L276.52 0.08 M307.32 0.24L307.32 0.24Q306.92 0.24 306.7 0Q306.48 -0.24 306.48 -0.64L306.48 -0.64L306.48 -27.56Q306.48 -28 306.7 -28.22Q306.92 -28.44 307.32 -28.44L307.32 -28.44Q307.72 -28.44 307.94 -28.22Q308.16 -28 308.16 -27.56L308.16 -27.56L308.16 -0.64Q308.16 -0.24 307.96 0Q307.76 0.24 307.32 0.24M307.32 -32.6L307.32 -32.6Q306.68 -32.6 306.32 -32.98Q305.96 -33.36 305.96 -34L305.96 -34Q305.96 -34.68 306.32 -35.02Q306.68 -35.36 307.32 -35.36L307.32 -35.36Q308 -35.36 308.34 -35.02Q308.68 -34.68 308.68 -34L308.68 -34Q308.68 -33.36 308.34 -32.98Q308 -32.6 307.32 -32.6" fill="#AFC6B0" transform="translate(422.16 341.35)"/></svg>